<?xml version="1.0" encoding="UTF-8" standalone="no"?>
<!-- Created with Inkscape (http://www.inkscape.org/) -->

<svg
   width="64"
   height="64"
   viewBox="0 0 64 64"
   version="1.1"
   id="svg1"
   inkscape:version="1.4 (e7c3feb100, 2024-10-09)"
   sodipodi:docname="route.svg"
   xmlns:inkscape="http://www.inkscape.org/namespaces/inkscape"
   xmlns:sodipodi="http://sodipodi.sourceforge.net/DTD/sodipodi-0.dtd"
   xmlns="http://www.w3.org/2000/svg"
   xmlns:svg="http://www.w3.org/2000/svg"
   xmlns:rdf="http://www.w3.org/1999/02/22-rdf-syntax-ns#"
   xmlns:cc="http://creativecommons.org/ns#"
   xmlns:dc="http://purl.org/dc/elements/1.1/">
  <title
     id="title3">Quetzal - Insert Route</title>
  <sodipodi:namedview
     id="namedview1"
     pagecolor="#323232"
     bordercolor="#ffffff"
     borderopacity="1"
     inkscape:showpageshadow="0"
     inkscape:pageopacity="0"
     inkscape:pagecheckerboard="1"
     inkscape:deskcolor="#191919"
     inkscape:document-units="px"
     showgrid="true"
     inkscape:zoom="7.9999996"
     inkscape:cx="29.187501"
     inkscape:cy="32.562502"
     inkscape:window-width="1290"
     inkscape:window-height="999"
     inkscape:window-x="0"
     inkscape:window-y="0"
     inkscape:window-maximized="1"
     inkscape:current-layer="svg1"
     showguides="true"
     inkscape:lockguides="false"
     guidecolor="#ffff00"
     guideopacity="0.6"
     guidehicolor="#ff00ff"
     guidehiopacity="0.50196078">
    <inkscape:grid
       id="grid1"
       units="px"
       originx="0"
       originy="0"
       spacingx="2"
       spacingy="2"
       empcolor="#0099e5"
       empopacity="0.30196078"
       color="#0099e5"
       opacity="0.14901961"
       empspacing="4"
       enabled="true"
       visible="true" />
    <sodipodi:guide
       position="-2,62"
       orientation="0,1"
       id="guide5"
       inkscape:locked="false"
       inkscape:label="top margin"
       inkscape:color="rgb(255,255,0)" />
    <sodipodi:guide
       position="64,2"
       orientation="0,1"
       id="guide6"
       inkscape:locked="false"
       inkscape:label="bottom margin"
       inkscape:color="rgb(255,255,0)" />
    <sodipodi:guide
       position="2,-2"
       orientation="-1,0"
       id="guide7"
       inkscape:locked="false"
       inkscape:label="right margin"
       inkscape:color="rgb(255,255,0)" />
    <sodipodi:guide
       position="62,64"
       orientation="-1,0"
       id="guide8"
       inkscape:locked="false"
       inkscape:label="left margin"
       inkscape:color="rgb(255,255,0)" />
    <sodipodi:guide
       position="64,64"
       orientation="0.70710678,-0.70710678"
       id="guide1"
       inkscape:locked="false"
       inkscape:label=""
       inkscape:color="rgb(255,255,0)" />
    <sodipodi:guide
       position="0,64"
       orientation="0.70710678,0.70710678"
       id="guide2"
       inkscape:label=""
       inkscape:locked="false"
       inkscape:color="rgb(255,255,0)" />
  </sodipodi:namedview>
  <defs
     id="defs1" />
  <metadata
     id="metadata1">
    <rdf:RDF>
      <cc:Work
         rdf:about="">
        <cc:license
           rdf:resource="http://creativecommons.org/licenses/by-nc-sa/4.0/" />
        <dc:creator>
          <cc:Agent>
            <dc:title>hasecilu</dc:title>
          </cc:Agent>
        </dc:creator>
        <dc:subject>
          <rdf:Bag>
            <rdf:li>FreeCAD</rdf:li>
            <rdf:li>command</rdf:li>
          </rdf:Bag>
        </dc:subject>
        <dc:description>Template file to create icons for FreeCAD commands.</dc:description>
        <dc:date>2025</dc:date>
        <dc:rights>
          <cc:Agent>
            <dc:title>FreeCAD LGPL2+</dc:title>
          </cc:Agent>
        </dc:rights>
        <dc:identifier>FreeCAD/src/</dc:identifier>
        <dc:publisher>
          <cc:Agent>
            <dc:title>FreeCAD</dc:title>
          </cc:Agent>
        </dc:publisher>
        <dc:relation>https://wiki.freecad.org/Artwork</dc:relation>
        <dc:title>Quetzal - Insert Route</dc:title>
      </cc:Work>
      <cc:License
         rdf:about="http://creativecommons.org/licenses/by-nc-sa/4.0/">
        <cc:permits
           rdf:resource="http://creativecommons.org/ns#Reproduction" />
        <cc:permits
           rdf:resource="http://creativecommons.org/ns#Distribution" />
        <cc:requires
           rdf:resource="http://creativecommons.org/ns#Notice" />
        <cc:requires
           rdf:resource="http://creativecommons.org/ns#Attribution" />
        <cc:prohibits
           rdf:resource="http://creativecommons.org/ns#CommercialUse" />
        <cc:permits
           rdf:resource="http://creativecommons.org/ns#DerivativeWorks" />
        <cc:requires
           rdf:resource="http://creativecommons.org/ns#ShareAlike" />
      </cc:License>
    </rdf:RDF>
  </metadata>
  <path
     id="path44"
     style="stroke-width:1.82186;stroke-dasharray:none;color:#000000;display:inline;fill:#729fcf;fill-opacity:1;stroke:#204a87;stroke-miterlimit:4;stroke-opacity:1"
     sodipodi:type="inkscape:offset"
     inkscape:radius="0.57187134"
     inkscape:original="M 12.597656 11.009766 C 9.2645177 11.009766 6.3664492 13.078853 4.4023438 16.085938 C 2.4382383 19.093021 1.2890625 23.10452 1.2890625 27.507812 C 1.2890625 31.74219 2.365934 35.809951 4.4023438 38.927734 C 6.4387533 42.045517 9.3839602 44.005859 12.597656 44.005859 C 15.811351 44.005859 18.756559 42.045517 20.792969 38.927734 C 22.829379 35.809951 23.904297 31.74219 23.904297 27.507812 C 23.904297 23.10452 22.757074 19.093022 20.792969 16.085938 C 18.828863 13.078854 15.930794 11.009766 12.597656 11.009766 z M 12.597656 14.072266 C 14.663489 14.072266 16.65256 15.351889 18.226562 17.761719 C 19.800566 20.171549 20.841797 23.645174 20.841797 27.507812 C 20.841797 31.212315 19.856753 34.758053 18.226562 37.253906 C 16.596373 39.749759 14.569315 40.943359 12.597656 40.943359 C 10.625996 40.943359 8.596987 39.749759 6.9667969 37.253906 C 5.3366068 34.758053 4.3535156 31.212316 4.3535156 27.507812 C 4.3535156 23.645174 5.3927936 20.171549 6.9667969 17.761719 C 8.5408002 15.351889 10.531822 14.072266 12.597656 14.072266 z "
     d="m 12.597656,10.4375 c -3.5698022,0 -6.6345594,2.213776 -8.6738279,5.335938 -2.0355921,3.11653 -3.20703123,7.231584 -3.20703123,11.734374 0,4.331336 1.09656153,8.501252 3.20703123,11.732422 2.1144426,3.237254 5.2275728,5.337891 8.6738279,5.337891 3.446255,0 6.559385,-2.100637 8.673828,-5.337891 2.110562,-3.23131 3.205078,-7.401262 3.205078,-11.732422 0,-4.502621 -1.169391,-8.617698 -3.205078,-11.734374 C 19.232215,12.651277 16.167459,10.4375 12.597656,10.4375 Z m 0,4.207031 c 1.82968,0 3.646327,1.126934 5.150391,3.429688 1.499559,2.295853 2.521484,5.673726 2.521484,9.433593 0,3.603128 -0.96922,7.057049 -2.521484,9.433594 -1.557148,2.384026 -3.409531,3.429688 -5.150391,3.429688 -1.740861,0 -3.5953089,-1.045837 -5.1523435,-3.429688 -1.5521488,-2.37637 -2.5195313,-5.830264 -2.5195313,-9.433594 0,-3.760059 1.0200914,-7.137921 2.5195313,-9.433593 1.5039474,-2.302573 3.3226625,-3.429688 5.1523435,-3.429688 z"
     inkscape:label="ellipse"
     transform="matrix(1.0977785,0,0,1.0977785,2.5249862,-3.704469)" />
  <path
     id="path4303"
     style="stroke-width:1.82186;stroke-dasharray:none;display:inline;fill:#ef2929;fill-opacity:1;stroke:#a40000;stroke-miterlimit:4;stroke-opacity:1"
     sodipodi:type="inkscape:offset"
     inkscape:radius="0.78105491"
     inkscape:original="M 36.322266 10.275391 A 3.4394599 3.8168207 0 0 0 33.166016 12.921875 L 13.503906 24.253906 A 3.4394599 3.8168207 0 0 0 11.822266 23.744141 A 3.4394599 3.8168207 0 0 0 8.3828125 27.5625 A 3.4394599 3.8168207 0 0 0 11.822266 31.378906 A 3.4394599 3.8168207 0 0 0 15.261719 27.5625 A 3.4394599 3.8168207 0 0 0 15.132812 26.578125 L 33.392578 16.054688 A 3.4394599 3.8168207 0 0 0 36.322266 17.908203 A 3.4394599 3.8168207 0 0 0 36.511719 17.853516 L 46.3125 48.634766 A 3.4394599 3.8168207 0 0 0 45.476562 50.957031 A 3.4394599 3.8168207 0 0 0 48.916016 54.773438 A 3.4394599 3.8168207 0 0 0 52.355469 50.957031 A 3.4394599 3.8168207 0 0 0 49.130859 47.167969 L 39.230469 16.080078 A 3.4394599 3.8168207 0 0 0 39.761719 14.091797 A 3.4394599 3.8168207 0 0 0 36.322266 10.275391 z "
     d="M 36.292969,9.4941406 C 34.657298,9.556548 33.189482,10.772919 32.576172,12.361328 L 13.373047,23.429687 C 12.875856,23.20507 12.373925,22.969173 11.832031,22.962891 a 0.78113302,0.78113302 0 0 0 -0.0098,0 c -1.127651,2e-6 -2.2407804,0.518916 -3.0136722,1.376953 -0.7728919,0.858037 -1.2074612,2.038849 -1.2070313,3.222656 1.159e-4,1.183421 0.4361357,2.363153 1.2089844,3.220703 0.7728487,0.85755 1.8844351,1.376951 3.0117191,1.376953 1.127283,-2e-6 2.23887,-0.519403 3.011718,-1.376953 0.772849,-0.85755 1.208869,-2.037282 1.208985,-3.220703 a 0.78113302,0.78113302 0 0 0 0,-0.002 0.78113302,0.78113302 0 0 0 0,-0.002 0.78113302,0.78113302 0 0 0 0,-0.0059 c -0.0023,-0.187666 -0.04895,-0.370592 -0.07227,-0.55664 l 17.296875,-9.96875 c 0.690207,0.840768 1.604167,1.413383 2.652344,1.541015 l 9.550781,29.998047 c -0.440892,0.705708 -0.7401,1.512038 -0.775391,2.357422 a 0.78113302,0.78113302 0 0 0 0,0.0332 c 1.16e-4,1.183422 0.436136,2.363153 1.208985,3.220703 0.772849,0.857551 1.884435,1.376951 3.011719,1.376953 1.127283,-2e-6 2.23887,-0.519402 3.011718,-1.376953 0.772849,-0.85755 1.208869,-2.037281 1.208985,-3.220703 a 0.78113302,0.78113302 0 0 0 0,-0.002 0.78113302,0.78113302 0 0 0 0,-0.002 c -0.0054,-1.132396 -0.408061,-2.26108 -1.125,-3.103516 -0.585278,-0.687727 -1.399602,-1.10169 -2.257813,-1.298828 L 40.029297,16.017578 c 0.269981,-0.607815 0.50573,-1.244283 0.513672,-1.916015 a 0.78113302,0.78113302 0 0 0 0,-0.002 0.78113302,0.78113302 0 0 0 0,-0.0059 0.78113302,0.78113302 0 0 0 0,-0.002 C 40.542853,12.908376 40.106833,11.728644 39.333984,10.871094 38.561136,10.013543 37.449549,9.4941431 36.322266,9.4941406 a 0.78113302,0.78113302 0 0 0 -0.0293,0 z"
     inkscape:label="lines"
     transform="matrix(1.0977785,0,0,1.0977785,2.5249862,-3.704469)" />
</svg>
