<?xml version="1.0" encoding="UTF-8" standalone="no"?>
<!-- Created with Inkscape (http://www.inkscape.org/) -->

<svg
   width="64"
   height="64"
   viewBox="0 0 64 64"
   version="1.1"
   id="svg1"
   inkscape:version="1.4 (e7c3feb100, 2024-10-09)"
   sodipodi:docname="reverse.svg"
   xmlns:inkscape="http://www.inkscape.org/namespaces/inkscape"
   xmlns:sodipodi="http://sodipodi.sourceforge.net/DTD/sodipodi-0.dtd"
   xmlns:xlink="http://www.w3.org/1999/xlink"
   xmlns="http://www.w3.org/2000/svg"
   xmlns:svg="http://www.w3.org/2000/svg"
   xmlns:rdf="http://www.w3.org/1999/02/22-rdf-syntax-ns#"
   xmlns:cc="http://creativecommons.org/ns#"
   xmlns:dc="http://purl.org/dc/elements/1.1/">
  <title
     id="title28">Quetzal - Reverse Orientation</title>
  <sodipodi:namedview
     id="namedview1"
     pagecolor="#323232"
     bordercolor="#ffffff"
     borderopacity="1"
     inkscape:showpageshadow="0"
     inkscape:pageopacity="0"
     inkscape:pagecheckerboard="1"
     inkscape:deskcolor="#191919"
     inkscape:document-units="px"
     showgrid="true"
     inkscape:zoom="11.313708"
     inkscape:cx="37.962797"
     inkscape:cy="44.149982"
     inkscape:window-width="1290"
     inkscape:window-height="999"
     inkscape:window-x="0"
     inkscape:window-y="0"
     inkscape:window-maximized="1"
     inkscape:current-layer="svg1"
     showguides="true"
     inkscape:lockguides="false"
     guidecolor="#ffff00"
     guideopacity="0.6"
     guidehicolor="#ff00ff"
     guidehiopacity="0.50196078">
    <inkscape:grid
       id="grid1"
       units="px"
       originx="0"
       originy="0"
       spacingx="2"
       spacingy="2"
       empcolor="#0099e5"
       empopacity="0.30196078"
       color="#0099e5"
       opacity="0.14901961"
       empspacing="4"
       enabled="true"
       visible="true" />
    <sodipodi:guide
       position="-2,62"
       orientation="0,1"
       id="guide5"
       inkscape:locked="false"
       inkscape:label="top margin"
       inkscape:color="rgb(255,255,0)" />
    <sodipodi:guide
       position="64,2"
       orientation="0,1"
       id="guide6"
       inkscape:locked="false"
       inkscape:label="bottom margin"
       inkscape:color="rgb(255,255,0)" />
    <sodipodi:guide
       position="2,-2"
       orientation="-1,0"
       id="guide7"
       inkscape:locked="false"
       inkscape:label="right margin"
       inkscape:color="rgb(255,255,0)" />
    <sodipodi:guide
       position="62,64"
       orientation="-1,0"
       id="guide8"
       inkscape:locked="false"
       inkscape:label="left margin"
       inkscape:color="rgb(255,255,0)" />
    <sodipodi:guide
       position="64,64"
       orientation="0.70710678,-0.70710678"
       id="guide1"
       inkscape:locked="false"
       inkscape:label=""
       inkscape:color="rgb(255,255,0)" />
    <sodipodi:guide
       position="0,64"
       orientation="0.70710678,0.70710678"
       id="guide2"
       inkscape:label=""
       inkscape:locked="false"
       inkscape:color="rgb(255,255,0)" />
  </sodipodi:namedview>
  <defs
     id="defs1">
    <linearGradient
       id="linearGradient3"
       inkscape:collect="always"
       inkscape:label="Sky Blue gradient">
      <stop
         style="stop-color:#729fcf;stop-opacity:1;"
         offset="0"
         id="stop3" />
      <stop
         style="stop-color:#3465a4;stop-opacity:1;"
         offset="1"
         id="stop4" />
    </linearGradient>
    <linearGradient
       inkscape:collect="always"
       xlink:href="#linearGradient3"
       id="linearGradient28"
       x1="13.627818"
       y1="9.6912947"
       x2="45.073353"
       y2="41.136829"
       gradientUnits="userSpaceOnUse" />
  </defs>
  <metadata
     id="metadata1">
    <rdf:RDF>
      <cc:Work
         rdf:about="">
        <cc:license
           rdf:resource="http://creativecommons.org/licenses/by-nc-sa/4.0/" />
        <dc:creator>
          <cc:Agent>
            <dc:title>hasecilu</dc:title>
          </cc:Agent>
        </dc:creator>
        <dc:subject>
          <rdf:Bag>
            <rdf:li>FreeCAD</rdf:li>
            <rdf:li>command</rdf:li>
          </rdf:Bag>
        </dc:subject>
        <dc:description>Template file to create icons for FreeCAD commands.</dc:description>
        <dc:date>2025</dc:date>
        <dc:rights>
          <cc:Agent>
            <dc:title>FreeCAD LGPL2+</dc:title>
          </cc:Agent>
        </dc:rights>
        <dc:identifier>FreeCAD/src/</dc:identifier>
        <dc:publisher>
          <cc:Agent>
            <dc:title>FreeCAD</dc:title>
          </cc:Agent>
        </dc:publisher>
        <dc:relation>https://wiki.freecad.org/Artwork</dc:relation>
        <dc:title>Quetzal - Reverse Orientation</dc:title>
      </cc:Work>
      <cc:License
         rdf:about="http://creativecommons.org/licenses/by-nc-sa/4.0/">
        <cc:permits
           rdf:resource="http://creativecommons.org/ns#Reproduction" />
        <cc:permits
           rdf:resource="http://creativecommons.org/ns#Distribution" />
        <cc:requires
           rdf:resource="http://creativecommons.org/ns#Notice" />
        <cc:requires
           rdf:resource="http://creativecommons.org/ns#Attribution" />
        <cc:prohibits
           rdf:resource="http://creativecommons.org/ns#CommercialUse" />
        <cc:permits
           rdf:resource="http://creativecommons.org/ns#DerivativeWorks" />
        <cc:requires
           rdf:resource="http://creativecommons.org/ns#ShareAlike" />
      </cc:License>
    </rdf:RDF>
  </metadata>
  <path
     id="path4"
     style="fill:#729fcf;stroke:#204a87;stroke-width:2;stroke-linecap:round;stroke-linejoin:round"
     d="M 28 8 A 24 24 0 0 0 4 32 L 16 32 A 12 12 0 0 1 28 20 A 12 12 0 0 1 40 32 L 34 32 L 46 44 L 58 32 L 52 32 A 24 24 0 0 0 28 8 z "
     inkscape:label="main" />
  <path
     id="path9"
     style="fill:url(#linearGradient28);fill-opacity:1;stroke:none;stroke-width:2;stroke-linecap:round;stroke-linejoin:round"
     sodipodi:type="inkscape:offset"
     inkscape:radius="-2.8286352"
     inkscape:original="M 28 8 A 24 24 0 0 0 4 32 L 16 32 A 12 12 0 0 1 28 20 A 12 12 0 0 1 40 32 L 34 32 L 46 44 L 58 32 L 52 32 A 24 24 0 0 0 28 8 z "
     d="m 28,10.828125 c -5.54265,0 -11.051457,2.281926 -14.970703,6.201172 -3.2477828,3.247783 -5.2818527,7.597037 -5.9140626,12.142578 h 6.3320316 c 0.0108,-0.05297 -0.003,-5e-4 0.0098,-0.06445 0.284012,-1.427825 -0.06908,-0.019 0.353516,-1.41211 0.422596,-1.393111 -0.06687,-0.02416 0.490234,-1.36914 0.55711,-1.344982 -0.06516,-0.03251 0.621094,-1.316406 0.686258,-1.283899 -0.06075,-0.0376 0.748047,-1.248047 0.808798,-1.210452 -0.05636,-0.04262 0.867187,-1.167969 0.923549,-1.125347 -0.05284,-0.05067 0.976563,-1.080078 1.029404,-1.029405 -0.04527,-0.05301 1.080078,-0.976563 1.125347,-0.923548 -0.04248,-0.05839 1.167969,-0.867187 1.210451,-0.808798 -0.03585,-0.06179 1.248047,-0.748047 1.283899,-0.686258 -0.02858,-0.06398 1.316406,-0.621094 1.344982,-0.557109 -0.02397,-0.06764 1.36914,-0.490234 1.393112,-0.422596 -0.01572,-0.0695 1.41211,-0.353516 1.427825,-0.284012 -0.0093,-0.07215 1.439453,-0.214844 1.448788,-0.142693 -0.0027,-0.07031 1.453125,-0.07031 1.455798,0 0.0043,-0.07238 1.453125,0.07031 1.448788,0.142694 0.01163,-0.06917 1.439453,0.214844 1.427825,0.284012 0.019,-0.06908 1.412109,0.353516 1.393112,0.422596 0.02416,-0.06687 1.369141,0.490234 1.344982,0.55711 0.03251,-0.06516 1.316406,0.621094 1.283899,0.686258 0.0376,-0.06075 1.248047,0.748047 1.210452,0.808798 0.04262,-0.05636 1.167969,0.867187 1.125347,0.923549 0.05067,-0.05284 1.080078,0.976563 1.029405,1.029404 0.05301,-0.04527 0.976563,1.080078 0.923548,1.125347 0.05839,-0.04248 0.867187,1.167969 0.808798,1.210451 0.06179,-0.03585 0.748047,1.248047 0.686258,1.283899 0.06398,-0.02858 0.621094,1.316406 0.557109,1.344982 0.06764,-0.02397 0.490234,1.36914 0.422596,1.393112 0.0695,-0.01572 0.353516,1.41211 0.284012,1.427825 0.07215,-0.0093 0.214843,1.439453 0.142694,1.448788 0.07031,-0.0027 0.07031,1.453125 a 2.8289181,2.8289181 0 0 1 -2.414063,2.414062 L 46,40 51.585937,34.414062 A 2.8289181,2.8289181 0 0 1 49.171875,32 c 0,-5.54265 -2.281926,-11.051457 -6.201172,-14.970703 C 39.051457,13.110051 33.54265,10.828125 28,10.828125 Z"
     inkscape:label="gradient" />
  <rect
     style="display:none;fill:#729fcf;fill-opacity:1;stroke:#204a87;stroke-width:2;stroke-linecap:round;stroke-linejoin:round"
     id="rect28"
     width="36"
     height="14"
     x="4"
     y="46"
     ry="2" />
  <text
     xml:space="preserve"
     style="font-weight:bold;font-size:10.6667px;font-family:'Droid Sans';-inkscape-font-specification:'Droid Sans Bold';text-align:center;writing-mode:lr-tb;direction:ltr;text-anchor:middle;display:none;fill:#729f03;fill-opacity:1;stroke:#204a87;stroke-width:2;stroke-linecap:round;stroke-linejoin:round"
     x="21.325565"
     y="56.895832"
     id="text28"
     inkscape:label="text hard to read"><tspan
       sodipodi:role="line"
       id="tspan28"
       x="21.325565"
       y="56.895832"
       style="font-style:normal;font-variant:normal;font-weight:normal;font-stretch:normal;font-size:10.6667px;font-family:'Droid Sans';-inkscape-font-specification:'Droid Sans';fill:#729fcf">1 8 0 °</tspan></text>
  <rect
     style="fill:#ef2929;stroke:#a40000;stroke-width:2;stroke-linecap:round;stroke-linejoin:round"
     id="rect1"
     width="52"
     height="4"
     x="7"
     y="51"
     ry="0"
     inkscape:label="180° angle" />
</svg>
