<?xml version="1.0" encoding="UTF-8" standalone="no"?>
<!-- Created with Inkscape (http://www.inkscape.org/) -->

<svg
   width="64"
   height="64"
   viewBox="0 0 64 64"
   version="1.1"
   id="svg1"
   inkscape:version="1.4 (e7c3feb100, 2024-10-09)"
   sodipodi:docname="grid.svg"
   xmlns:inkscape="http://www.inkscape.org/namespaces/inkscape"
   xmlns:sodipodi="http://sodipodi.sourceforge.net/DTD/sodipodi-0.dtd"
   xmlns="http://www.w3.org/2000/svg"
   xmlns:svg="http://www.w3.org/2000/svg"
   xmlns:rdf="http://www.w3.org/1999/02/22-rdf-syntax-ns#"
   xmlns:cc="http://creativecommons.org/ns#"
   xmlns:dc="http://purl.org/dc/elements/1.1/">
  <title
     id="title1">Quetzal - Grid</title>
  <sodipodi:namedview
     id="namedview1"
     pagecolor="#323232"
     bordercolor="#ffffff"
     borderopacity="1"
     inkscape:showpageshadow="0"
     inkscape:pageopacity="0"
     inkscape:pagecheckerboard="1"
     inkscape:deskcolor="#191919"
     inkscape:document-units="px"
     showgrid="true"
     inkscape:zoom="7.9999995"
     inkscape:cx="11.937501"
     inkscape:cy="25.812502"
     inkscape:window-width="1290"
     inkscape:window-height="999"
     inkscape:window-x="0"
     inkscape:window-y="0"
     inkscape:window-maximized="1"
     inkscape:current-layer="svg1"
     showguides="true"
     inkscape:lockguides="false"
     guidecolor="#ffff00"
     guideopacity="0.6"
     guidehicolor="#ff00ff"
     guidehiopacity="0.50196078">
    <inkscape:grid
       id="grid1"
       units="px"
       originx="0"
       originy="0"
       spacingx="2"
       spacingy="2"
       empcolor="#0099e5"
       empopacity="0.30196078"
       color="#0099e5"
       opacity="0.14901961"
       empspacing="4"
       enabled="true"
       visible="true" />
    <sodipodi:guide
       position="-2,62"
       orientation="0,1"
       id="guide5"
       inkscape:locked="false"
       inkscape:label="top margin"
       inkscape:color="rgb(255,255,0)" />
    <sodipodi:guide
       position="64,2"
       orientation="0,1"
       id="guide6"
       inkscape:locked="false"
       inkscape:label="bottom margin"
       inkscape:color="rgb(255,255,0)" />
    <sodipodi:guide
       position="2,-2"
       orientation="-1,0"
       id="guide7"
       inkscape:locked="false"
       inkscape:label="right margin"
       inkscape:color="rgb(255,255,0)" />
    <sodipodi:guide
       position="62,64"
       orientation="-1,0"
       id="guide8"
       inkscape:locked="false"
       inkscape:label="left margin"
       inkscape:color="rgb(255,255,0)" />
    <sodipodi:guide
       position="64,64"
       orientation="0.70710678,-0.70710678"
       id="guide1"
       inkscape:locked="false" />
    <sodipodi:guide
       position="0,64"
       orientation="0.70710678,0.70710678"
       id="guide2"
       inkscape:label=""
       inkscape:locked="false"
       inkscape:color="rgb(255,255,0)" />
  </sodipodi:namedview>
  <defs
     id="defs1" />
  <metadata
     id="metadata1">
    <rdf:RDF>
      <cc:Work
         rdf:about="">
        <cc:license
           rdf:resource="http://creativecommons.org/licenses/by-nc-sa/4.0/" />
        <dc:creator>
          <cc:Agent>
            <dc:title>hasecilu</dc:title>
          </cc:Agent>
        </dc:creator>
        <dc:subject>
          <rdf:Bag>
            <rdf:li>FreeCAD</rdf:li>
            <rdf:li>command</rdf:li>
          </rdf:Bag>
        </dc:subject>
        <dc:description>Template file to create icons for FreeCAD commands.</dc:description>
        <dc:date>2024</dc:date>
        <dc:rights>
          <cc:Agent>
            <dc:title>FreeCAD LGPL2+</dc:title>
          </cc:Agent>
        </dc:rights>
        <dc:identifier>FreeCAD/src/</dc:identifier>
        <dc:publisher>
          <cc:Agent>
            <dc:title>FreeCAD</dc:title>
          </cc:Agent>
        </dc:publisher>
        <dc:relation>https://wiki.freecad.org/Artwork</dc:relation>
        <dc:title>Quetzal - Grid</dc:title>
      </cc:Work>
      <cc:License
         rdf:about="http://creativecommons.org/licenses/by-nc-sa/4.0/">
        <cc:permits
           rdf:resource="http://creativecommons.org/ns#Reproduction" />
        <cc:permits
           rdf:resource="http://creativecommons.org/ns#Distribution" />
        <cc:requires
           rdf:resource="http://creativecommons.org/ns#Notice" />
        <cc:requires
           rdf:resource="http://creativecommons.org/ns#Attribution" />
        <cc:prohibits
           rdf:resource="http://creativecommons.org/ns#CommercialUse" />
        <cc:permits
           rdf:resource="http://creativecommons.org/ns#DerivativeWorks" />
        <cc:requires
           rdf:resource="http://creativecommons.org/ns#ShareAlike" />
      </cc:License>
    </rdf:RDF>
  </metadata>
  <g
     id="g21"
     inkscape:label="grid"
     style="display:inline;fill:#729fcf">
    <g
       id="path21">
      <path
         style="display:inline;fill:#729fcf;fill-opacity:1;stroke:#204a87;stroke-width:2.22222;stroke-linecap:round;stroke-linejoin:round;stroke-dasharray:none"
         d="M 12,3.1111111 A 2.2222222,2.2222222 0 0 0 9.7777778,5.3333333 V 9.7777778 H 5.3333333 A 2.2222222,2.2222222 0 0 0 3.1111111,12 2.2222222,2.2222222 0 0 0 5.3333333,14.222222 h 4.4444445 v 8.888889 H 5.3333333 a 2.2222222,2.2222222 0 0 0 -2.2222222,2.222222 2.2222222,2.2222222 0 0 0 2.2222222,2.222223 h 4.4444445 v 8.888888 H 5.3333333 a 2.2222222,2.2222222 0 0 0 -2.2222222,2.222223 2.2222222,2.2222222 0 0 0 2.2222222,2.222222 h 4.4444445 v 8.888889 H 5.3333333 A 2.2222222,2.2222222 0 0 0 3.1111111,52 2.2222222,2.2222222 0 0 0 5.3333333,54.222222 h 4.4444445 v 4.444445 A 2.2222222,2.2222222 0 0 0 12,60.888889 2.2222222,2.2222222 0 0 0 14.222222,58.666667 v -4.444445 h 8.888889 v 4.444445 a 2.2222222,2.2222222 0 0 0 2.222222,2.222222 2.2222222,2.2222222 0 0 0 2.222223,-2.222222 v -4.444445 h 8.888888 v 4.444445 a 2.2222222,2.2222222 0 0 0 2.222223,2.222222 2.2222222,2.2222222 0 0 0 2.222222,-2.222222 v -4.444445 h 8.888889 v 4.444445 A 2.2222222,2.2222222 0 0 0 52,60.888889 2.2222222,2.2222222 0 0 0 54.222222,58.666667 v -4.444445 h 4.444445 A 2.2222222,2.2222222 0 0 0 60.888889,52 2.2222222,2.2222222 0 0 0 58.666667,49.777778 h -4.444445 v -8.888889 h 4.444445 a 2.2222222,2.2222222 0 0 0 2.222222,-2.222222 2.2222222,2.2222222 0 0 0 -2.222222,-2.222223 h -4.444445 v -8.888888 h 4.444445 a 2.2222222,2.2222222 0 0 0 2.222222,-2.222223 2.2222222,2.2222222 0 0 0 -2.222222,-2.222222 h -4.444445 v -8.888889 h 4.444445 A 2.2222222,2.2222222 0 0 0 60.888889,12 2.2222222,2.2222222 0 0 0 58.666667,9.7777778 H 54.222222 V 5.3333333 A 2.2222222,2.2222222 0 0 0 52,3.1111111 2.2222222,2.2222222 0 0 0 49.777778,5.3333333 V 9.7777778 H 40.888889 V 5.3333333 A 2.2222222,2.2222222 0 0 0 38.666667,3.1111111 2.2222222,2.2222222 0 0 0 36.444444,5.3333333 V 9.7777778 H 27.555556 V 5.3333333 A 2.2222222,2.2222222 0 0 0 25.333333,3.1111111 2.2222222,2.2222222 0 0 0 23.111111,5.3333333 V 9.7777778 H 14.222222 V 5.3333333 A 2.2222222,2.2222222 0 0 0 12,3.1111111 Z m 2.222222,11.1111109 h 8.888889 v 8.888889 h -8.888889 z m 13.333334,0 h 8.888888 v 8.888889 h -8.888888 z m 13.333333,0 h 8.888889 v 8.888889 H 40.888889 Z M 14.222222,27.555556 h 8.888889 v 8.888888 h -8.888889 z m 13.333334,0 h 8.888888 v 8.888888 h -8.888888 z m 13.333333,0 h 8.888889 v 8.888888 H 40.888889 Z M 14.222222,40.888889 h 8.888889 v 8.888889 h -8.888889 z m 13.333334,0 h 8.888888 v 8.888889 h -8.888888 z m 13.333333,0 h 8.888889 v 8.888889 h -8.888889 z"
         id="path23" />
    </g>
  </g>
  <g
     transform="matrix(1.4557633,0,0,1.4557633,-20.97933,-1438.0094)"
     id="g3"
     inkscape:label="cross"
     style="display:inline">
    <path
       d="m 38.664191,1021.1177 -4.530322,10e-5 -5e-6,-9.0606 h -9.060579 l -4e-5,-4.5304 9.048205,-0.012 -3e-6,-9.06057 4.530322,-3e-5 4e-6,9.0606 h 9.060579 l 4.1e-5,4.5304 -9.038377,0.022 z"
       fill-rule="evenodd"
       stroke="#a40000"
       stroke-width="1.38595"
       fill="#cc0000"
       id="path1-9" />
    <path
       stroke="#ef2929"
       stroke-width="0.461984px"
       d="m 36.37127,1002.3729 -1e-5,1e-4 -3.01e-4,7.3909 -7.390981,3e-4"
       fill="none"
       id="path2-1" />
    <path
       stroke="#ef2929"
       stroke-width="0.461984px"
       d="m 43.786769,1009.7884 h -7.391334 l 7.309303,3e-4 m -7.309287,7.3093 -3.43e-4,-7.3093"
       fill="none"
       id="path3-3" />
  </g>
</svg>
