<?xml version="1.0" encoding="UTF-8" standalone="no"?>
<!-- Created with Inkscape (http://www.inkscape.org/) -->

<svg
   width="64"
   height="64"
   viewBox="0 0 64 64"
   version="1.1"
   id="svg1"
   inkscape:version="1.4 (e7c3feb100, 2024-10-09)"
   sodipodi:docname="cut_list_icon.svg"
   xmlns:inkscape="http://www.inkscape.org/namespaces/inkscape"
   xmlns:sodipodi="http://sodipodi.sourceforge.net/DTD/sodipodi-0.dtd"
   xmlns:xlink="http://www.w3.org/1999/xlink"
   xmlns="http://www.w3.org/2000/svg"
   xmlns:svg="http://www.w3.org/2000/svg"
   xmlns:rdf="http://www.w3.org/1999/02/22-rdf-syntax-ns#"
   xmlns:cc="http://creativecommons.org/ns#"
   xmlns:dc="http://purl.org/dc/elements/1.1/">
  <title
     id="title4">Template</title>
  <sodipodi:namedview
     id="namedview1"
     pagecolor="#323232"
     bordercolor="#ffffff"
     borderopacity="1"
     inkscape:showpageshadow="0"
     inkscape:pageopacity="0"
     inkscape:pagecheckerboard="1"
     inkscape:deskcolor="#191919"
     inkscape:document-units="px"
     showgrid="true"
     inkscape:zoom="11.313708"
     inkscape:cx="30.052038"
     inkscape:cy="46.359688"
     inkscape:window-width="1894"
     inkscape:window-height="999"
     inkscape:window-x="0"
     inkscape:window-y="0"
     inkscape:window-maximized="1"
     inkscape:current-layer="svg1"
     showguides="true"
     inkscape:lockguides="false"
     guidecolor="#ffff00"
     guideopacity="0.6"
     guidehicolor="#ff00ff"
     guidehiopacity="0.50196078">
    <inkscape:grid
       id="grid1"
       units="px"
       originx="0"
       originy="0"
       spacingx="2"
       spacingy="2"
       empcolor="#0099e5"
       empopacity="0.30196078"
       color="#0099e5"
       opacity="0.14901961"
       empspacing="4"
       enabled="true"
       visible="true" />
    <sodipodi:guide
       position="-2,62"
       orientation="0,1"
       id="guide5"
       inkscape:locked="false"
       inkscape:label="top margin"
       inkscape:color="rgb(255,255,0)" />
    <sodipodi:guide
       position="64,2"
       orientation="0,1"
       id="guide6"
       inkscape:locked="false"
       inkscape:label="bottom margin"
       inkscape:color="rgb(255,255,0)" />
    <sodipodi:guide
       position="2,-2"
       orientation="-1,0"
       id="guide7"
       inkscape:locked="false"
       inkscape:label="right margin"
       inkscape:color="rgb(255,255,0)" />
    <sodipodi:guide
       position="62,64"
       orientation="-1,0"
       id="guide8"
       inkscape:locked="false"
       inkscape:label="left margin"
       inkscape:color="rgb(255,255,0)" />
    <sodipodi:guide
       position="64,64"
       orientation="0.70710678,-0.70710678"
       id="guide1"
       inkscape:locked="false"
       inkscape:label=""
       inkscape:color="rgb(255,255,0)" />
    <sodipodi:guide
       position="0,64"
       orientation="0.70710678,0.70710678"
       id="guide2"
       inkscape:label=""
       inkscape:locked="false"
       inkscape:color="rgb(255,255,0)" />
  </sodipodi:namedview>
  <defs
     id="defs1">
    <linearGradient
       id="linearGradient29"
       inkscape:collect="always"
       inkscape:label="Free Teal gradiente">
      <stop
         style="stop-color:#34e0e2;stop-opacity:1;"
         offset="0"
         id="stop29" />
      <stop
         style="stop-color:#16d0d2;stop-opacity:1;"
         offset="1"
         id="stop30" />
    </linearGradient>
    <linearGradient
       id="linearGradient26"
       inkscape:collect="always"
       inkscape:label="Aluminium gradient">
      <stop
         style="stop-color:#babdb6;stop-opacity:1;"
         offset="0"
         id="stop26" />
      <stop
         style="stop-color:#555753;stop-opacity:1;"
         offset="1"
         id="stop27" />
    </linearGradient>
    <linearGradient
       id="linearGradient24"
       inkscape:collect="always"
       inkscape:label="White gradient">
      <stop
         style="stop-color:#ffffff;stop-opacity:1;"
         offset="0"
         id="stop24" />
      <stop
         style="stop-color:#eeeeec;stop-opacity:1;"
         offset="1"
         id="stop25" />
    </linearGradient>
    <linearGradient
       id="linearGradient22"
       inkscape:collect="always"
       inkscape:label="Scarlet red gradient">
      <stop
         style="stop-color:#ef2929;stop-opacity:1;"
         offset="0"
         id="stop22" />
      <stop
         style="stop-color:#cc0000;stop-opacity:1;"
         offset="1"
         id="stop23" />
    </linearGradient>
    <linearGradient
       id="linearGradient19"
       inkscape:collect="always"
       inkscape:label="Chocolate gradient">
      <stop
         style="stop-color:#e9b96e;stop-opacity:1;"
         offset="0"
         id="stop19" />
      <stop
         style="stop-color:#c17d11;stop-opacity:1;"
         offset="1"
         id="stop20" />
    </linearGradient>
    <linearGradient
       id="linearGradient17"
       inkscape:collect="always"
       inkscape:label="Plum gradient">
      <stop
         style="stop-color:#ad7fa8;stop-opacity:1;"
         offset="0"
         id="stop17" />
      <stop
         style="stop-color:#75507b;stop-opacity:1;"
         offset="1"
         id="stop18" />
    </linearGradient>
    <linearGradient
       id="linearGradient13"
       inkscape:collect="always"
       inkscape:label="Orange gradient">
      <stop
         style="stop-color:#fcaf3e;stop-opacity:1;"
         offset="0"
         id="stop13" />
      <stop
         style="stop-color:#f57900;stop-opacity:1;"
         offset="1"
         id="stop14" />
    </linearGradient>
    <linearGradient
       id="linearGradient11"
       inkscape:collect="always"
       inkscape:label="Chameleon gradient">
      <stop
         style="stop-color:#8ae234;stop-opacity:1;"
         offset="0"
         id="stop11" />
      <stop
         style="stop-color:#73d216;stop-opacity:1;"
         offset="1"
         id="stop12" />
    </linearGradient>
    <linearGradient
       id="linearGradient9"
       inkscape:collect="always"
       inkscape:label="Butter gradient">
      <stop
         style="stop-color:#fce94f;stop-opacity:1;"
         offset="0"
         id="stop9" />
      <stop
         style="stop-color:#edd400;stop-opacity:1;"
         offset="1"
         id="stop10" />
    </linearGradient>
    <linearGradient
       id="linearGradient3"
       inkscape:collect="always"
       inkscape:label="Sky Blue gradient">
      <stop
         style="stop-color:#729fcf;stop-opacity:1;"
         offset="0"
         id="stop3" />
      <stop
         style="stop-color:#3465a4;stop-opacity:1;"
         offset="1"
         id="stop4" />
    </linearGradient>
    <linearGradient
       inkscape:collect="always"
       xlink:href="#linearGradient3"
       id="linearGradient4"
       x1="17.12866"
       y1="17.12866"
       x2="46.871338"
       y2="46.871338"
       gradientUnits="userSpaceOnUse" />
    <linearGradient
       inkscape:collect="always"
       xlink:href="#linearGradient9"
       id="linearGradient10"
       x1="9.7573595"
       y1="11.757359"
       x2="18.242641"
       y2="20.24264"
       gradientUnits="userSpaceOnUse"
       gradientTransform="matrix(1.1666667,0,0,1.0000001,-1.3333333,-4.000001)" />
    <linearGradient
       inkscape:collect="always"
       xlink:href="#linearGradient11"
       id="linearGradient12"
       x1="25.757359"
       y1="11.75736"
       x2="34.242641"
       y2="20.242641"
       gradientUnits="userSpaceOnUse"
       gradientTransform="matrix(1.1666667,0,0,1,-3,-4)" />
    <linearGradient
       inkscape:collect="always"
       xlink:href="#linearGradient13"
       id="linearGradient14"
       x1="41.757359"
       y1="11.75736"
       x2="50.242641"
       y2="20.242641"
       gradientUnits="userSpaceOnUse"
       gradientTransform="matrix(1.1666667,0,0,1,-4.6666667,-4)" />
    <linearGradient
       inkscape:collect="always"
       xlink:href="#linearGradient3"
       id="linearGradient16"
       x1="9.7573595"
       y1="35.757359"
       x2="18.242641"
       y2="44.242641"
       gradientUnits="userSpaceOnUse"
       gradientTransform="matrix(1.1666667,0,0,1,-1.3333333,-6)" />
    <linearGradient
       inkscape:collect="always"
       xlink:href="#linearGradient17"
       id="linearGradient18"
       x1="25.757359"
       y1="35.757359"
       x2="34.242641"
       y2="44.242641"
       gradientUnits="userSpaceOnUse"
       gradientTransform="matrix(1.1666667,0,0,1,-3,-6)" />
    <linearGradient
       inkscape:collect="always"
       xlink:href="#linearGradient19"
       id="linearGradient20"
       x1="41.757359"
       y1="35.757359"
       x2="50.242641"
       y2="44.242641"
       gradientUnits="userSpaceOnUse"
       gradientTransform="matrix(1.1666667,0,0,1,-4.6666665,-6)" />
    <linearGradient
       inkscape:collect="always"
       xlink:href="#linearGradient22"
       id="linearGradient23"
       x1="10.050253"
       y1="47.050251"
       x2="19.949747"
       y2="56.949749"
       gradientUnits="userSpaceOnUse"
       gradientTransform="translate(0,4)" />
    <linearGradient
       inkscape:collect="always"
       xlink:href="#linearGradient24"
       id="linearGradient25"
       x1="27.050253"
       y1="47.050251"
       x2="36.949749"
       y2="56.949749"
       gradientUnits="userSpaceOnUse"
       gradientTransform="translate(17,4)" />
    <linearGradient
       inkscape:collect="always"
       xlink:href="#linearGradient26"
       id="linearGradient27"
       x1="44.050251"
       y1="47.050251"
       x2="53.949749"
       y2="56.949749"
       gradientUnits="userSpaceOnUse"
       gradientTransform="translate(14,-18)" />
    <linearGradient
       inkscape:collect="always"
       xlink:href="#linearGradient29"
       id="linearGradient30"
       x1="27.050253"
       y1="47.050251"
       x2="36.949749"
       y2="56.949749"
       gradientUnits="userSpaceOnUse"
       gradientTransform="translate(0,4)" />
    <linearGradient
       inkscape:collect="always"
       xlink:href="#linearGradient3"
       id="linearGradient15"
       x1="15.931274"
       y1="15.872681"
       x2="48.068726"
       y2="48.010132"
       gradientUnits="userSpaceOnUse" />
    <linearGradient
       inkscape:collect="always"
       xlink:href="#linearGradient26"
       id="linearGradient6"
       x1="13.13825"
       y1="7.6499686"
       x2="25.037531"
       y2="19.54925"
       gradientUnits="userSpaceOnUse" />
    <linearGradient
       inkscape:collect="always"
       xlink:href="#linearGradient24"
       id="linearGradient28"
       x1="43.100288"
       y1="24.186178"
       x2="43.100288"
       y2="55.257195"
       gradientUnits="userSpaceOnUse" />
  </defs>
  <metadata
     id="metadata1">
    <rdf:RDF>
      <cc:Work
         rdf:about="">
        <cc:license
           rdf:resource="http://creativecommons.org/licenses/by-nc-sa/4.0/" />
        <dc:creator>
          <cc:Agent>
            <dc:title>hasecilu</dc:title>
          </cc:Agent>
        </dc:creator>
        <dc:subject>
          <rdf:Bag>
            <rdf:li>FreeCAD</rdf:li>
            <rdf:li>command</rdf:li>
          </rdf:Bag>
        </dc:subject>
        <dc:description>Template file to create icons for FreeCAD commands.</dc:description>
        <dc:date>2025</dc:date>
        <dc:rights>
          <cc:Agent>
            <dc:title>FreeCAD LGPL2+</dc:title>
          </cc:Agent>
        </dc:rights>
        <dc:identifier>FreeCAD/src/</dc:identifier>
        <dc:publisher>
          <cc:Agent>
            <dc:title>FreeCAD</dc:title>
          </cc:Agent>
        </dc:publisher>
        <dc:relation>https://wiki.freecad.org/Artwork</dc:relation>
        <dc:title>Template</dc:title>
      </cc:Work>
      <cc:License
         rdf:about="http://creativecommons.org/licenses/by-nc-sa/4.0/">
        <cc:permits
           rdf:resource="http://creativecommons.org/ns#Reproduction" />
        <cc:permits
           rdf:resource="http://creativecommons.org/ns#Distribution" />
        <cc:requires
           rdf:resource="http://creativecommons.org/ns#Notice" />
        <cc:requires
           rdf:resource="http://creativecommons.org/ns#Attribution" />
        <cc:prohibits
           rdf:resource="http://creativecommons.org/ns#CommercialUse" />
        <cc:permits
           rdf:resource="http://creativecommons.org/ns#DerivativeWorks" />
        <cc:requires
           rdf:resource="http://creativecommons.org/ns#ShareAlike" />
      </cc:License>
    </rdf:RDF>
  </metadata>
  <g
     id="g1"
     inkscape:label="Example icon"
     style="display:none">
    <path
       style="fill:#729fcf;fill-opacity:1;stroke:#204a87;stroke-width:2;stroke-dasharray:none;stroke-dashoffset:0;stroke-opacity:1"
       d="M 8,12 V 52 L 56,44 V 20 Z"
       id="path1"
       inkscape:label="main" />
    <path
       id="path2"
       style="fill:url(#linearGradient4);fill-opacity:1;stroke:none;stroke-width:2;stroke-dasharray:none;stroke-dashoffset:0;stroke-opacity:1"
       inkscape:label="gradient"
       sodipodi:type="inkscape:offset"
       inkscape:radius="-0.96875"
       inkscape:original="M 10 14.361328 L 10 49.638672 L 54 42.3125 L 54 21.6875 L 10 14.361328 z "
       d="m 10.96875,15.503906 v 32.992188 l 42.0625,-7.003907 V 22.507812 Z" />
    <path
       style="display:inline;fill:none;fill-opacity:1;stroke:#000000;stroke-width:2;stroke-dasharray:8, 2, 2, 2;stroke-dashoffset:0;stroke-opacity:1"
       d="M 2,32 H 62"
       id="path11"
       inkscape:label="horizontal" />
  </g>
  <g
     id="g30"
     inkscape:label="Gradient samples"
     style="display:none"
     transform="translate(-6,-2)">
    <rect
       style="display:inline;opacity:1;fill:url(#linearGradient10);stroke:none;stroke-width:2.87095;stroke-dasharray:none;stroke-opacity:1"
       id="rect3"
       width="14"
       height="16"
       x="8"
       y="4"
       ry="0.039028071"
       inkscape:label="Butter" />
    <rect
       style="fill:url(#linearGradient12);stroke:none;stroke-width:1.87083;stroke-dasharray:none;stroke-opacity:1"
       id="rect4"
       width="14"
       height="16"
       x="25"
       y="4"
       ry="0.022097087"
       inkscape:label="Chamaleon" />
    <rect
       style="fill:url(#linearGradient14);stroke:none;stroke-width:2.16025;stroke-dasharray:none;stroke-opacity:1"
       id="rect5"
       width="14"
       height="16"
       x="42"
       y="4"
       ry="0.022097087"
       inkscape:label="Orange" />
    <rect
       style="fill:url(#linearGradient16);stroke:none;stroke-width:2.16025;stroke-dasharray:none;stroke-opacity:1"
       id="rect6"
       width="14"
       height="16"
       x="8"
       y="26"
       ry="0.022097087"
       inkscape:label="Sky Blue" />
    <rect
       style="fill:url(#linearGradient18);stroke:none;stroke-width:2.16025;stroke-dasharray:none;stroke-opacity:1"
       id="rect7"
       width="14"
       height="16"
       x="25"
       y="26"
       ry="0.022097087"
       inkscape:label="Plum" />
    <rect
       style="fill:url(#linearGradient20);stroke:none;stroke-width:2.16025;stroke-dasharray:none;stroke-opacity:1"
       id="rect8"
       width="14"
       height="16"
       x="42"
       y="26"
       ry="0.022097087"
       inkscape:label="Chocolate" />
    <rect
       style="opacity:1;fill:url(#linearGradient23);fill-opacity:1;stroke:none;stroke-width:2;stroke-dasharray:none;stroke-opacity:1"
       id="rect20"
       width="14"
       height="16"
       x="8"
       y="48"
       ry="0.022097087"
       inkscape:label="Scarlet Red" />
    <rect
       style="opacity:1;fill:url(#linearGradient25);stroke:none;stroke-width:2;stroke-dasharray:none;stroke-opacity:1"
       id="rect21"
       width="14"
       height="16"
       x="42"
       y="48"
       ry="0.022097087"
       inkscape:label="White" />
    <rect
       style="opacity:1;fill:url(#linearGradient27);stroke:none;stroke-width:2;stroke-dasharray:none;stroke-opacity:1"
       id="rect22"
       width="10"
       height="20"
       x="58"
       y="24"
       ry="0.022097087"
       inkscape:label="Aluminium" />
    <rect
       style="opacity:1;fill:url(#linearGradient30);fill-opacity:1;stroke:none;stroke-width:2;stroke-dasharray:none;stroke-opacity:1"
       id="rect27"
       width="14"
       height="16"
       x="25"
       y="48"
       ry="0.022097087"
       inkscape:label="Free Teal" />
  </g>
  <g
     id="g2"
     inkscape:label="Up arrow"
     transform="translate(-1.0602643e-7,0.06366303)"
     style="display:none">
    <path
       d="M 14.400051,49.561876 5.5999492,40.761775 23.199898,23.161825 32,14.313498 40.800102,23.113599 58.400051,40.713549 49.599949,49.51365 32,32 Z"
       fill-rule="evenodd"
       stroke="#a40000"
       stroke-width="3.80732"
       fill="#cc0000"
       id="path5"
       inkscape:label="up"
       style="display:inline;fill:#729fcf;stroke:#204a87;stroke-width:2;stroke-dasharray:none;stroke-opacity:1"
       sodipodi:nodetypes="ccccccccc" />
    <path
       id="path7"
       style="display:inline;fill:url(#linearGradient15);fill-opacity:1;stroke:none;stroke-width:2;stroke-dasharray:none"
       inkscape:label="gradient"
       sodipodi:type="inkscape:offset"
       inkscape:radius="-2.5991442"
       inkscape:original="M 32 14.314453 L 23.199219 23.162109 L 5.5996094 40.761719 L 14.400391 49.5625 L 32 32 L 49.599609 49.513672 L 58.400391 40.712891 L 40.800781 23.113281 L 32 14.314453 z "
       d="m 32.003906,17.994141 -6.96289,7 A 2.5994041,2.5994041 0 0 1 25.037109,25 L 9.2753906,40.761719 14.402344,45.888672 30.164062,30.160156 a 2.5994041,2.5994041 0 0 1 3.669922,-0.002 L 49.595703,45.841797 54.724609,40.712891 38.962891,24.951172 Z" />
    <path
       d="M 14.400051,59.377418 5.5999492,50.577317 23.199898,32.977367 5.5999492,15.377418 14.400051,6.5773167 32,24.12904 49.599949,6.5290907 58.400051,15.329192 40.800102,32.929141 58.400051,50.529091 49.599949,59.329192 32,41.815542 Z"
       fill-rule="evenodd"
       stroke="#a40000"
       stroke-width="3.80732"
       fill="#cc0000"
       id="path1-3"
       inkscape:label="cross"
       style="display:none"
       transform="translate(1.0602643e-7,-0.06366303)" />
  </g>
  <path
     fill="currentColor"
     d="m 40.960088,30.527936 c 0,0 -2.939478,2.729515 2.309589,4.199252 l -5.878958,5.878958 h -5.878955 c 0,0 -3.989291,-0.209963 -1.049811,4.61918 h -8.398512 l -4.199256,-4.199254 c 0,0 -2.729515,-2.939478 -4.199251,2.309589 L 7.7859761,37.456703 v -5.878956 c 0,0 0.209963,-3.98929 -4.6191791,-1.049811 v -8.398511 l 4.1992531,-4.199256 c 0,0 2.9394779,-2.729513 -2.5195516,-3.989289 L 10.725456,7.851961 h 6.088919 c 0,0 3.98929,0.209963 1.04981,-4.6191798 h 8.398512 l 4.199256,4.1992546 c 0,0 2.729515,2.9394782 4.199252,-2.5195531 l 5.878957,5.8789563 v 6.088919 c 0,0 -0.209963,3.989291 4.61918,1.049811 v 8.398512 l -4.199254,4.199255 M 28.362325,24.229053 a 4.1992546,4.1992546 0 0 0 -4.199256,-4.199256 4.1992546,4.1992546 0 0 0 -4.199256,4.199256 4.1992546,4.1992546 0 0 0 4.199256,4.199256 4.1992546,4.1992546 0 0 0 4.199256,-4.199256 z"
     id="path1-5"
     style="fill:#babdb6;fill-opacity:1;fill-rule:evenodd;stroke:#555753;stroke-width:2.19248;stroke-dasharray:none;stroke-opacity:1"
     inkscape:label="disc" />
  <path
     id="path3"
     style="fill:url(#linearGradient6);fill-opacity:1;fill-rule:evenodd;stroke:none;stroke-width:1.04203;stroke-dasharray:none;stroke-opacity:1"
     inkscape:label="gradient"
     sodipodi:type="inkscape:offset"
     inkscape:radius="-1.5640639"
     inkscape:original="M 16.09375 3.6210938 C 17.490809 5.9162608 15.595703 5.8164062 15.595703 5.8164062 L 12.701172 5.8164062 L 9.9082031 8.7089844 C 12.502739 9.3077236 11.105469 10.605469 11.105469 10.605469 L 9.109375 12.601562 L 9.109375 16.59375 C 11.404542 15.196691 11.304688 17.091797 11.304688 17.091797 L 11.304688 19.886719 L 14.097656 22.679688 C 14.796184 20.184942 16.09375 21.582031 16.09375 21.582031 L 18.089844 23.578125 L 22.082031 23.578125 C 20.684972 21.282958 22.580078 21.382812 22.580078 21.382812 L 25.375 21.382812 L 28.167969 18.587891 C 25.673223 17.889363 27.070312 16.59375 27.070312 16.59375 L 29.066406 14.597656 L 29.066406 10.605469 C 26.771239 12.002528 26.871094 10.107422 26.871094 10.107422 L 26.871094 7.2128906 L 24.078125 4.4179688 C 23.379597 7.0125055 22.082031 5.6152344 22.082031 5.6152344 L 20.085938 3.6210938 L 16.09375 3.6210938 z M 19.087891 11.603516 A 1.9957974 1.9957974 0 0 1 21.083984 13.599609 A 1.9957974 1.9957974 0 0 1 19.087891 15.595703 A 1.9957974 1.9957974 0 0 1 17.091797 13.599609 A 1.9957974 1.9957974 0 0 1 19.087891 11.603516 z "
     d="m 18.027344,5.1855469 c -0.07072,0.5912707 -0.239156,1.2290449 -0.628907,1.5703125 -0.95198,0.8335591 -1.884765,0.6230469 -1.884765,0.6230468 l 0.08203,0.00195 h -2.230469 l -1,1.0351562 c 0.375065,0.4694466 0.708158,1.0473751 0.675782,1.5644532 -0.07848,1.2534362 -0.871094,1.7714842 -0.871094,1.7714842 L 10.673828,13.25 v 1.410156 c 0.591271,0.07072 1.229045,0.239156 1.570313,0.628907 0.833559,0.951979 0.623046,1.884765 0.623047,1.884765 l 0.002,-0.08203 v 2.146484 L 13.875,20.246094 c 0.49276,-0.368439 1.10745,-0.656427 1.625,-0.609375 1.211662,0.110154 1.740234,0.880859 1.740234,0.880859 l 1.498047,1.496094 h 1.410156 c 0.07072,-0.591271 0.239157,-1.229045 0.628907,-1.570313 0.95198,-0.833559 1.884765,-0.623047 1.884765,-0.623047 l -0.08203,-0.002 h 2.146484 l 1.007813,-1.007812 c -0.368406,-0.492509 -0.654537,-1.105409 -0.607422,-1.623047 0.104774,-1.15111 0.767672,-1.648359 0.837891,-1.699219 l 0.04102,-0.04101 1.496094,-1.498047 v -1.410156 c -0.591271,-0.07072 -1.229045,-0.239156 -1.570312,-0.628907 -0.833559,-0.95198 -0.623047,-1.884765 -0.623047,-1.884765 l -0.002,0.08203 V 7.8613281 L 24.333984,6.8867187 C 23.854514,7.2704739 23.252338,7.5829459 22.722656,7.5507812 21.480736,7.4753664 20.935547,6.6796875 20.935547,6.6796875 L 19.439453,5.1855469 Z m 1.060547,4.8535161 c 0.698933,-1.04e-4 0.0098,-0.06792 0.695312,0.06836 0.685519,0.136279 0.02222,-0.0643 0.667969,0.203125 0.64575,0.267422 0.03408,-0.06016 0.615234,0.328125 0.581156,0.388285 0.04484,-0.05086 0.539063,0.443359 0.49422,0.494221 0.05507,-0.04209 0.443359,0.539063 0.388285,0.581156 0.0607,-0.03052 0.328125,0.615234 0.267422,0.64575 0.06685,-0.01755 0.203125,0.667969 0.136279,0.685518 0.06846,-0.0036 0.06836,0.695312 1.04e-4,0.698933 0.06792,0.0098 -0.06836,0.695313 -0.136279,0.685518 0.0643,0.02222 -0.203125,0.667969 -0.267422,0.64575 0.06016,0.03408 -0.328125,0.615234 -0.388285,0.581156 0.05086,0.04484 -0.443359,0.539062 -0.49422,0.494221 0.04209,0.05507 -0.539063,0.44336 -0.581156,0.388285 0.03052,0.0607 -0.615234,0.328125 -0.64575,0.267422 0.01755,0.06685 -0.667969,0.203125 -0.685518,0.136279 0.0036,0.06846 -0.695312,0.06836 -0.698933,1.04e-4 -0.0098,0.06792 -0.695313,-0.06836 -0.685518,-0.136279 -0.02222,0.0643 -0.667969,-0.203125 -0.645749,-0.267422 -0.03408,0.06016 -0.615234,-0.328125 -0.581156,-0.388285 -0.04484,0.05086 -0.539063,-0.44336 -0.49422,-0.49422 -0.05507,0.04209 -0.443359,-0.539062 -0.388285,-0.581156 -0.0607,0.03051 -0.328125,-0.615234 -0.267422,-0.64575 -0.06685,0.01755 -0.203125,-0.667969 -0.136279,-0.685519 -0.06846,0.0036 -0.06836,-0.695313 -1.04e-4,-0.698933 -0.06792,-0.0098 0.06836,-0.695312 0.136279,-0.685519 -0.0643,-0.02222 0.203125,-0.667969 0.267423,-0.64575 -0.06016,-0.03408 0.328125,-0.615234 0.388285,-0.581156 -0.05086,-0.04484 0.443359,-0.539063 0.494221,-0.49422 -0.04209,-0.05507 0.539063,-0.443359 0.581156,-0.388285 -0.03052,-0.0607 0.615234,-0.328125 0.64575,-0.267422 -0.01755,-0.06685 0.667969,-0.203125 0.685519,-0.1362788 -0.0036,-0.06846 0.695313,-0.06836 z"
     transform="matrix(2.1040485,0,0,2.1040485,-15.998955,-4.3842816)" />
  <rect
     style="display:inline;fill:url(#linearGradient28);fill-opacity:1;stroke:#204a87;stroke-width:1.91972;stroke-linecap:round;stroke-linejoin:round;stroke-dasharray:none"
     id="rect9"
     width="29.151297"
     height="38.710953"
     x="28.524641"
     y="20.366211"
     transform="matrix(1.0418185,0,0,1.0418185,0.28250063,-1.2178958)" />
  <rect
     style="fill:#d3d7cf;fill-opacity:1;stroke:#2e3436;stroke-width:2;stroke-linecap:round;stroke-linejoin:round;stroke-dasharray:none"
     id="rect34"
     width="22"
     height="6"
     x="34"
     y="25" />
  <rect
     style="fill:#d3d7cf;fill-opacity:1;stroke:#2e3436;stroke-width:2;stroke-linecap:round;stroke-linejoin:round;stroke-dasharray:none"
     id="rect35"
     width="22"
     height="6"
     x="34"
     y="37" />
  <rect
     style="fill:#d3d7cf;fill-opacity:1;stroke:#2e3436;stroke-width:2;stroke-linecap:round;stroke-linejoin:round;stroke-dasharray:none"
     id="rect36"
     width="22"
     height="6"
     x="34"
     y="49" />
</svg>
