<?xml version="1.0" encoding="UTF-8" standalone="no"?>
<!-- Created with Inkscape (http://www.inkscape.org/) -->

<svg
   width="64"
   height="64"
   viewBox="0 0 64 64"
   version="1.1"
   id="svg1"
   inkscape:version="1.4 (e7c3feb100, 2024-10-09)"
   sodipodi:docname="flange.svg"
   xmlns:inkscape="http://www.inkscape.org/namespaces/inkscape"
   xmlns:sodipodi="http://sodipodi.sourceforge.net/DTD/sodipodi-0.dtd"
   xmlns:xlink="http://www.w3.org/1999/xlink"
   xmlns="http://www.w3.org/2000/svg"
   xmlns:svg="http://www.w3.org/2000/svg"
   xmlns:rdf="http://www.w3.org/1999/02/22-rdf-syntax-ns#"
   xmlns:cc="http://creativecommons.org/ns#"
   xmlns:dc="http://purl.org/dc/elements/1.1/">
  <title
     id="title7">flange</title>
  <sodipodi:namedview
     id="namedview1"
     pagecolor="#323232"
     bordercolor="#ffffff"
     borderopacity="1"
     inkscape:showpageshadow="0"
     inkscape:pageopacity="0"
     inkscape:pagecheckerboard="1"
     inkscape:deskcolor="#191919"
     inkscape:document-units="px"
     showgrid="true"
     inkscape:zoom="11.313708"
     inkscape:cx="22.185475"
     inkscape:cy="32.615301"
     inkscape:window-width="1894"
     inkscape:window-height="999"
     inkscape:window-x="0"
     inkscape:window-y="0"
     inkscape:window-maximized="1"
     inkscape:current-layer="svg1"
     showguides="true"
     inkscape:lockguides="false"
     guidecolor="#ffff00"
     guideopacity="0.6"
     guidehicolor="#ff00ff"
     guidehiopacity="0.50196078">
    <inkscape:grid
       id="grid1"
       units="px"
       originx="0"
       originy="0"
       spacingx="2"
       spacingy="2"
       empcolor="#0099e5"
       empopacity="0.30196078"
       color="#0099e5"
       opacity="0.14901961"
       empspacing="4"
       enabled="true"
       visible="true" />
    <sodipodi:guide
       position="-2,62"
       orientation="0,1"
       id="guide5"
       inkscape:locked="false"
       inkscape:label="top margin"
       inkscape:color="rgb(255,255,0)" />
    <sodipodi:guide
       position="64,2"
       orientation="0,1"
       id="guide6"
       inkscape:locked="false"
       inkscape:label="bottom margin"
       inkscape:color="rgb(255,255,0)" />
    <sodipodi:guide
       position="2,-2"
       orientation="-1,0"
       id="guide7"
       inkscape:locked="false"
       inkscape:label="right margin"
       inkscape:color="rgb(255,255,0)" />
    <sodipodi:guide
       position="62,64"
       orientation="-1,0"
       id="guide8"
       inkscape:locked="false"
       inkscape:label="left margin"
       inkscape:color="rgb(255,255,0)" />
  </sodipodi:namedview>
  <defs
     id="defs1">
    <linearGradient
       id="linearGradient15"
       inkscape:collect="always">
      <stop
         style="stop-color:#729fcf;stop-opacity:1;"
         offset="0"
         id="stop15" />
      <stop
         style="stop-color:#3465a4;stop-opacity:1;"
         offset="1"
         id="stop16" />
    </linearGradient>
    <linearGradient
       inkscape:collect="always"
       xlink:href="#linearGradient15"
       id="linearGradient16"
       x1="7.0137377"
       y1="31.994107"
       x2="56.99818"
       y2="31.994107"
       gradientUnits="userSpaceOnUse" />
  </defs>
  <metadata
     id="metadata1">
    <rdf:RDF>
      <cc:Work
         rdf:about="">
        <dc:creator>
          <cc:Agent>
            <dc:title>hasecilu</dc:title>
          </cc:Agent>
        </dc:creator>
        <dc:subject>
          <rdf:Bag>
            <rdf:li>FreeCAD</rdf:li>
            <rdf:li>command</rdf:li>
          </rdf:Bag>
        </dc:subject>
        <dc:description>Template file to create icons for FreeCAD commands.</dc:description>
        <dc:date>2024</dc:date>
        <dc:rights>
          <cc:Agent>
            <dc:title>FreeCAD LGPL2+</dc:title>
          </cc:Agent>
        </dc:rights>
        <dc:identifier>FreeCAD/src/</dc:identifier>
        <dc:publisher>
          <cc:Agent>
            <dc:title>FreeCAD</dc:title>
          </cc:Agent>
        </dc:publisher>
        <dc:relation>https://wiki.freecad.org/Artwork</dc:relation>
        <dc:title>flange</dc:title>
      </cc:Work>
    </rdf:RDF>
  </metadata>
  <path
     id="path7"
     style="display:inline;fill:#729fcf;fill-opacity:1;stroke:#204a87;stroke-width:2;stroke-dasharray:none;stroke-dashoffset:0;stroke-opacity:1"
     d="M 32,6 A 26,26 0 0 0 6,32 26,26 0 0 0 32,58 26,26 0 0 0 58,32 26,26 0 0 0 32,6 Z m 0,4 a 4,4 0 0 1 4,4 4,4 0 0 1 -4,4 4,4 0 0 1 -4,-4 4,4 0 0 1 4,-4 z m 0,12 A 10,10 0 0 1 42,32 10,10 0 0 1 32,42 10,10 0 0 1 22,32 10,10 0 0 1 32,22 Z m -18,6 a 4,4 0 0 1 4,4 4,4 0 0 1 -4,4 4,4 0 0 1 -4,-4 4,4 0 0 1 4,-4 z m 36,0 a 4,4 0 0 1 4,4 4,4 0 0 1 -4,4 4,4 0 0 1 -4,-4 4,4 0 0 1 4,-4 z M 32,46 a 4,4 0 0 1 4,4 4,4 0 0 1 -4,4 4,4 0 0 1 -4,-4 4,4 0 0 1 4,-4 z"
     inkscape:label="main" />
  <path
     id="path13"
     style="display:inline;fill:url(#linearGradient16);fill-opacity:1;stroke:none;stroke-width:2;stroke-dasharray:none;stroke-dashoffset:0"
     d="m 32.388672,8.0136719 c 3.034856,0.1272381 5.64258,2.8741361 5.609375,5.9121091 0.0098,1.748615 -0.756612,3.476733 -2.089844,4.615235 -1.049958,0.911731 -2.42039,1.41089 -3.808594,1.460937 4.777608,-0.0207 9.36605,3.123625 11.058284,7.593155 0.547071,1.365236 0.826817,2.83515 0.840154,4.305283 0.05108,-1.690156 0.802681,-3.340064 2.09375,-4.441407 1.967156,-1.737825 5.112183,-1.94962 7.27207,-0.424503 1.607766,1.06985 2.625527,2.959823 2.63418,4.8913 0.0258,-7.507501 -3.736907,-14.896186 -9.82326,-19.291643 -4.055973,-2.9789984 -9.06792,-4.6268165 -14.100568,-4.6321849 0.104817,0.00391 0.209635,0.00781 0.314453,0.011719 z m -2.605469,0.091797 c -3.572664,0.3630047 -7.064354,1.48762 -10.144481,3.3401631 -3.768718,2.268989 -6.895651,5.587539 -8.918527,9.49624 -1.7349342,3.329621 -2.6588467,7.068102 -2.7065231,10.8218 0.071616,-2.024685 1.2374688,-3.98118 3.0203011,-4.95663 2.329041,-1.412281 5.602246,-0.903928 7.39861,1.154324 0.990955,1.07199 1.557014,2.522912 1.565464,3.981993 0.04792,-2.64317 0.92018,-5.284332 2.587624,-7.34932 1.804365,-2.343358 4.5303,-3.931604 7.442471,-4.420979 0.616286,-0.125764 1.2534,-0.104293 1.878108,-0.171107 -1.692231,-0.04922 -3.344651,-0.80123 -4.447266,-2.09375 -1.176201,-1.356714 -1.685739,-3.253477 -1.347656,-5.021484 0.331194,-1.76513 1.493837,-3.3467192 3.087891,-4.1835939 0.789522,-0.4150612 1.6703,-0.6493333 2.564453,-0.6894531 -0.660156,0.030599 -1.320313,0.061198 -1.980469,0.091797 z M 19.988281,32.222656 c -0.05679,1.687343 -0.869009,3.298322 -2.150353,4.389503 -1.365342,1.115098 -3.211604,1.612652 -4.951209,1.276513 -1.76513,-0.331194 -3.3467193,-1.493837 -4.183594,-3.087891 -0.4150612,-0.789522 -0.6493333,-1.6703 -0.6894531,-2.564453 0.048797,4.252935 1.2419192,8.478432 3.4319601,12.12495 2.268989,3.768718 5.587539,6.895651 9.49624,8.918527 3.329621,1.734934 7.068102,2.658847 10.8218,2.706523 -2.024685,-0.07162 -3.98118,-1.237469 -4.95663,-3.020301 -0.954816,-1.600159 -1.045457,-3.661276 -0.297276,-5.364465 0.712472,-1.647132 2.199538,-2.926718 3.9375,-3.388671 0.321215,-0.167527 1.480685,-0.152896 1.310409,-0.225865 -2.920693,-0.05978 -5.811739,-1.216514 -7.932698,-3.228455 -2.351605,-2.159848 -3.744664,-5.300018 -3.81005,-8.48887 -0.0126,-0.08054 -0.0066,-0.32714 -0.02665,-0.04704 z m 24.00586,-0.08008 c -0.04419,2.720267 -1.020047,5.408743 -2.759615,7.503531 -1.819555,2.202318 -4.443502,3.711769 -7.262668,4.180831 -0.610882,0.127294 -1.33893,0.106902 -1.897639,0.175013 3.072819,-0.03539 5.844707,2.636315 5.915833,5.709306 0.08857,1.857317 -0.733315,3.702914 -2.152124,4.9009 -1.020244,0.817291 -2.286967,1.328371 -3.6016,1.374169 4.252935,-0.0488 8.478432,-1.241919 12.12495,-3.43196 3.768718,-2.268989 6.895651,-5.587539 8.918527,-9.49624 1.734934,-3.329621 2.658847,-7.068102 2.706523,-10.8218 -0.07162,2.024685 -1.237469,3.98118 -3.020301,4.95663 -1.600159,0.954816 -3.661276,1.045457 -5.364465,0.297276 -1.647132,-0.712472 -2.926718,-2.199538 -3.388671,-3.9375 -0.160992,-0.415724 -0.144264,-1.142304 -0.21875,-1.410156 z"
     inkscape:label="gradient" />
  <path
     style="display:inline;fill:none;fill-opacity:1;stroke:#000000;stroke-width:2;stroke-dasharray:8, 2, 2, 2;stroke-dashoffset:0;stroke-opacity:1"
     d="M 62,32 H 2"
     id="path11"
     inkscape:label="horizontal" />
  <path
     style="fill:#204a87;fill-opacity:1;stroke:#000000;stroke-width:2;stroke-dasharray:8, 2, 2, 2;stroke-dashoffset:0;stroke-opacity:1"
     d="M 32,62 V 2"
     id="path3"
     inkscape:label="vertical" />
</svg>
