<?xml version="1.0" encoding="UTF-8" standalone="no"?>
<!-- Created with Inkscape (http://www.inkscape.org/) -->

<svg
   width="64"
   height="64"
   viewBox="0 0 64 64"
   version="1.1"
   id="svg1"
   inkscape:version="1.4 (e7c3feb100, 2024-10-09)"
   sodipodi:docname="beamRot.svg"
   xmlns:inkscape="http://www.inkscape.org/namespaces/inkscape"
   xmlns:sodipodi="http://sodipodi.sourceforge.net/DTD/sodipodi-0.dtd"
   xmlns:xlink="http://www.w3.org/1999/xlink"
   xmlns="http://www.w3.org/2000/svg"
   xmlns:svg="http://www.w3.org/2000/svg"
   xmlns:rdf="http://www.w3.org/1999/02/22-rdf-syntax-ns#"
   xmlns:cc="http://creativecommons.org/ns#"
   xmlns:dc="http://purl.org/dc/elements/1.1/">
  <title
     id="title28">Quetzal - Rotate Beam</title>
  <sodipodi:namedview
     id="namedview1"
     pagecolor="#323232"
     bordercolor="#ffffff"
     borderopacity="1"
     inkscape:showpageshadow="0"
     inkscape:pageopacity="0"
     inkscape:pagecheckerboard="1"
     inkscape:deskcolor="#191919"
     inkscape:document-units="px"
     showgrid="true"
     inkscape:zoom="7.9999996"
     inkscape:cx="33.187502"
     inkscape:cy="28.437501"
     inkscape:window-width="1894"
     inkscape:window-height="999"
     inkscape:window-x="0"
     inkscape:window-y="0"
     inkscape:window-maximized="1"
     inkscape:current-layer="svg1"
     showguides="true"
     inkscape:lockguides="false"
     guidecolor="#ffff00"
     guideopacity="0.6"
     guidehicolor="#ff00ff"
     guidehiopacity="0.50196078">
    <inkscape:grid
       id="grid1"
       units="px"
       originx="0"
       originy="0"
       spacingx="2"
       spacingy="2"
       empcolor="#0099e5"
       empopacity="0.30196078"
       color="#0099e5"
       opacity="0.14901961"
       empspacing="4"
       enabled="true"
       visible="true" />
    <sodipodi:guide
       position="-2,62"
       orientation="0,1"
       id="guide5"
       inkscape:locked="false"
       inkscape:label="top margin"
       inkscape:color="rgb(255,255,0)" />
    <sodipodi:guide
       position="64,2"
       orientation="0,1"
       id="guide6"
       inkscape:locked="false"
       inkscape:label="bottom margin"
       inkscape:color="rgb(255,255,0)" />
    <sodipodi:guide
       position="2,-2"
       orientation="-1,0"
       id="guide7"
       inkscape:locked="false"
       inkscape:label="right margin"
       inkscape:color="rgb(255,255,0)" />
    <sodipodi:guide
       position="62,64"
       orientation="-1,0"
       id="guide8"
       inkscape:locked="false"
       inkscape:label="left margin"
       inkscape:color="rgb(255,255,0)" />
    <sodipodi:guide
       position="64,64"
       orientation="0.70710678,-0.70710678"
       id="guide1"
       inkscape:locked="false"
       inkscape:label=""
       inkscape:color="rgb(255,255,0)" />
    <sodipodi:guide
       position="48,16"
       orientation="0.70710678,0.70710678"
       id="guide2"
       inkscape:label=""
       inkscape:locked="false"
       inkscape:color="rgb(255,255,0)" />
  </sodipodi:namedview>
  <defs
     id="defs1">
    <linearGradient
       id="linearGradient3"
       inkscape:collect="always"
       inkscape:label="Sky Blue gradient">
      <stop
         style="stop-color:#729fcf;stop-opacity:1;"
         offset="0"
         id="stop3" />
      <stop
         style="stop-color:#3465a4;stop-opacity:1;"
         offset="1"
         id="stop4" />
    </linearGradient>
    <linearGradient
       inkscape:collect="always"
       xlink:href="#linearGradient3"
       id="linearGradient28"
       x1="57.712891"
       y1="34.143547"
       x2="10.044927"
       y2="34.143547"
       gradientUnits="userSpaceOnUse" />
  </defs>
  <metadata
     id="metadata1">
    <rdf:RDF>
      <cc:Work
         rdf:about="">
        <cc:license
           rdf:resource="http://creativecommons.org/licenses/by-nc-sa/4.0/" />
        <dc:creator>
          <cc:Agent>
            <dc:title>hasecilu</dc:title>
          </cc:Agent>
        </dc:creator>
        <dc:subject>
          <rdf:Bag>
            <rdf:li>FreeCAD</rdf:li>
            <rdf:li>command</rdf:li>
          </rdf:Bag>
        </dc:subject>
        <dc:description>Template file to create icons for FreeCAD commands.</dc:description>
        <dc:date>2025</dc:date>
        <dc:rights>
          <cc:Agent>
            <dc:title>FreeCAD LGPL2+</dc:title>
          </cc:Agent>
        </dc:rights>
        <dc:identifier>FreeCAD/src/</dc:identifier>
        <dc:publisher>
          <cc:Agent>
            <dc:title>FreeCAD</dc:title>
          </cc:Agent>
        </dc:publisher>
        <dc:relation>https://wiki.freecad.org/Artwork</dc:relation>
        <dc:title>Quetzal - Rotate Beam</dc:title>
      </cc:Work>
      <cc:License
         rdf:about="http://creativecommons.org/licenses/by-nc-sa/4.0/">
        <cc:permits
           rdf:resource="http://creativecommons.org/ns#Reproduction" />
        <cc:permits
           rdf:resource="http://creativecommons.org/ns#Distribution" />
        <cc:requires
           rdf:resource="http://creativecommons.org/ns#Notice" />
        <cc:requires
           rdf:resource="http://creativecommons.org/ns#Attribution" />
        <cc:prohibits
           rdf:resource="http://creativecommons.org/ns#CommercialUse" />
        <cc:permits
           rdf:resource="http://creativecommons.org/ns#DerivativeWorks" />
        <cc:requires
           rdf:resource="http://creativecommons.org/ns#ShareAlike" />
      </cc:License>
    </rdf:RDF>
  </metadata>
  <path
     id="path3"
     style="fill:#729fcf;stroke:#204a87;stroke-width:2;stroke-linecap:round;stroke-linejoin:round;stroke-dasharray:none"
     inkscape:label="main"
     d="M 28.82893,4.630871 A 25.369129,25.369129 0 0 0 3.4598005,30 25.369129,25.369129 0 0 0 28.828929,55.369129 l 1e-6,-12.684564 A 12.684565,12.684565 0 0 1 16.144365,30 12.684565,12.684565 0 0 1 28.82893,17.315435 12.684565,12.684565 0 0 1 41.513494,30.000001 H 35.171212 L 47.855776,42.684565 60.540341,30 H 54.19806 A 25.369129,25.369129 0 0 0 28.82893,4.630871 Z" />
  <path
     id="path9"
     style="display:inline;fill:url(#linearGradient28);fill-opacity:1;stroke:none;stroke-width:2;stroke-linecap:round;stroke-linejoin:round;stroke-dasharray:none"
     inkscape:label="gradient"
     sodipodi:type="inkscape:offset"
     inkscape:radius="-2.828125"
     inkscape:original="M 35.171875 8.6308594 L 35.171875 21.316406 A 12.684565 12.684565 0 0 1 47.855469 34 A 12.684565 12.684565 0 0 1 35.171875 46.683594 A 12.684565 12.684565 0 0 1 22.486328 34 L 28.828125 34 L 16.144531 21.316406 L 3.4589844 34 L 9.8027344 34 A 25.369129 25.369129 0 0 0 35.171875 59.369141 A 25.369129 25.369129 0 0 0 60.541016 34 A 25.369129 25.369129 0 0 0 35.171875 8.6308594 z "
     d="m 38,11.746094 v 7.011718 c 0.106363,0.02309 0.0014,-0.0097 0.197266,0.0293 1.493723,0.29721 0.01916,-0.07303 1.476562,0.369141 1.457403,0.442175 0.02654,-0.06921 1.433594,0.513672 1.40705,0.582882 0.0338,-0.06759 1.376953,0.65039 1.343149,0.717978 0.03837,-0.06296 1.304687,0.783204 1.266316,0.84616 0.04537,-0.05994 1.222657,0.90625 1.177289,0.966195 0.05198,-0.05544 1.128906,1.021484 1.076927,1.076927 0.05529,-0.04838 1.021484,1.128906 0.966195,1.177289 0.06009,-0.04366 0.90625,1.222656 0.84616,1.266316 0.06523,-0.03846 0.783203,1.304688 0.717978,1.343149 0.06751,-0.0301 0.650391,1.376953 0.582882,1.40705 0.0715,-0.02381 0.513672,1.433594 0.442175,1.457403 0.07193,-0.01716 0.369141,1.476562 0.297209,1.493723 0.07523,-0.01175 0.224609,1.503907 0.149382,1.51566 0.0741,-0.0015 0.07422,1.521484 -1.17e-4,1.523004 0.07516,0.0058 -0.07422,1.521484 -0.149382,1.515661 0.0726,0.01018 -0.224609,1.503907 -0.29721,1.493723 0.07303,0.01916 -0.369141,1.476562 -0.442175,1.457403 0.06921,0.02654 -0.513672,1.433594 -0.582882,1.40705 0.06759,0.0338 -0.650391,1.376953 -0.717977,1.343149 0.06296,0.03837 -0.783203,1.304687 -0.84616,1.266316 0.05994,0.04537 -0.90625,1.222657 -0.966195,1.177289 0.05544,0.05198 -1.021484,1.128906 -1.076927,1.076927 0.04838,0.05529 -1.128906,1.021484 -1.177289,0.966195 0.04366,0.06009 -1.222657,0.90625 -1.266315,0.84616 0.03846,0.06523 -1.304687,0.783203 -1.343149,0.717978 0.0301,0.06751 -1.376953,0.650391 -1.40705,0.582882 0.02381,0.0715 -1.433594,0.513672 -1.457403,0.442175 0.01716,0.07193 -1.476562,0.369141 -1.493723,0.297209 0.01175,0.07523 -1.503907,0.224609 -1.51566,0.149382 0.0015,0.0741 -1.521484,0.07422 -1.522954,1.18e-4 -0.0039,0.07494 -1.519531,-0.07422 -1.515633,-0.149158 -0.01214,0.07434 -1.50586,-0.222656 -1.493714,-0.296998 -0.0211,0.07088 -1.478515,-0.371094 -1.457411,-0.441978 -0.02457,0.07098 -1.431641,-0.511719 -1.407071,-0.582701 -0.03377,0.06547 -1.376953,-0.652344 -1.343181,-0.717812 -0.04029,0.06476 -1.306641,-0.78125 -1.266355,-0.84601 -0.04532,0.05981 -1.222656,-0.90625 -1.177334,-0.966061 -0.04998,0.05337 -1.126953,-1.023437 -1.076974,-1.076809 -0.0572,0.05023 -1.023438,-1.126953 -0.966242,-1.177186 -0.06004,0.04357 -0.90625,-1.222656 -0.846205,-1.266226 -0.06518,0.03643 -0.783203,-1.306641 -0.718019,-1.343071 -0.06747,0.03198 -0.65039,-1.375 -0.582918,-1.406982 -0.07147,0.02375 -0.513672,-1.433594 -0.442202,-1.457342 -0.07191,0.01711 -0.369141,-1.476562 -0.297228,-1.493669 -0.07522,0.0098 -0.224609,-1.50586 C 19.58303,34.005875 19.65832,35.522954 19.658203,34 a 2.8284078,2.8284078 0 0 1 2.583984,-2.585938 l -6.097656,-6.097656 -6.099609,6.097656 A 2.8284078,2.8284078 0 0 1 12.630859,34 c -2e-6,5.901225 2.428767,11.766657 6.601563,15.939453 4.172796,4.172796 10.038228,6.601565 15.939453,6.601563 5.901225,2e-6 11.766657,-2.428767 15.939453,-6.601563 C 55.284124,45.766657 57.712893,39.901225 57.712891,34 57.712893,28.098775 55.284124,22.233343 51.111328,18.060547 47.610197,14.559416 42.905539,12.387359 38,11.746094 Z"
     transform="rotate(180,32,32)" />
  <rect
     style="display:none;fill:#729fcf;fill-opacity:1;stroke:#204a87;stroke-width:2;stroke-linecap:round;stroke-linejoin:round"
     id="rect28"
     width="26.939341"
     height="14"
     x="4"
     y="4"
     ry="2" />
  <text
     xml:space="preserve"
     style="font-weight:bold;font-size:10.6667px;font-family:'Droid Sans';-inkscape-font-specification:'Droid Sans Bold';text-align:center;writing-mode:lr-tb;direction:ltr;text-anchor:middle;display:none;fill:#729f03;fill-opacity:1;stroke:#204a87;stroke-width:2;stroke-linecap:round;stroke-linejoin:round"
     x="17.809931"
     y="14.723983"
     id="text28"><tspan
       sodipodi:role="line"
       id="tspan28"
       x="17.809931"
       y="14.723983"
       style="font-style:normal;font-variant:normal;font-weight:normal;font-stretch:normal;font-size:10.6667px;font-family:'Droid Sans';-inkscape-font-specification:'Droid Sans';fill:#729fcf">4 5 °</tspan></text>
  <path
     style="fill:#ef2929;stroke:#a40000;stroke-width:2;stroke-linecap:round;stroke-linejoin:round"
     d="M 56,56 H 48 L 56,47.370019 54,44 40,58 v 2 h 16 z"
     id="path1"
     inkscape:label="45° angle"
     sodipodi:nodetypes="cccccccc" />
</svg>
