<?xml version="1.0" encoding="UTF-8" standalone="no"?>
<!-- Created with Inkscape (http://www.inkscape.org/) -->

<svg
   width="64"
   height="64"
   viewBox="0 0 64 64"
   version="1.1"
   id="svg1"
   inkscape:version="1.4 (e7c3feb100, 2024-10-09)"
   sodipodi:docname="intersect1.svg"
   xmlns:inkscape="http://www.inkscape.org/namespaces/inkscape"
   xmlns:sodipodi="http://sodipodi.sourceforge.net/DTD/sodipodi-0.dtd"
   xmlns="http://www.w3.org/2000/svg"
   xmlns:svg="http://www.w3.org/2000/svg"
   xmlns:rdf="http://www.w3.org/1999/02/22-rdf-syntax-ns#"
   xmlns:cc="http://creativecommons.org/ns#"
   xmlns:dc="http://purl.org/dc/elements/1.1/">
  <title
     id="title3">Quetzal - Intersect 1</title>
  <sodipodi:namedview
     id="namedview1"
     pagecolor="#323232"
     bordercolor="#ffffff"
     borderopacity="1"
     inkscape:showpageshadow="0"
     inkscape:pageopacity="0"
     inkscape:pagecheckerboard="1"
     inkscape:deskcolor="#191919"
     inkscape:document-units="px"
     showgrid="true"
     inkscape:zoom="7.9999996"
     inkscape:cx="37.687502"
     inkscape:cy="19.687501"
     inkscape:window-width="1894"
     inkscape:window-height="999"
     inkscape:window-x="0"
     inkscape:window-y="0"
     inkscape:window-maximized="1"
     inkscape:current-layer="svg1"
     showguides="true"
     inkscape:lockguides="false"
     guidecolor="#ffff00"
     guideopacity="0.6"
     guidehicolor="#ff00ff"
     guidehiopacity="0.50196078">
    <inkscape:grid
       id="grid1"
       units="px"
       originx="0"
       originy="0"
       spacingx="2"
       spacingy="2"
       empcolor="#0099e5"
       empopacity="0.30196078"
       color="#0099e5"
       opacity="0.14901961"
       empspacing="4"
       enabled="true"
       visible="true" />
    <sodipodi:guide
       position="-2,62"
       orientation="0,1"
       id="guide5"
       inkscape:locked="false"
       inkscape:label="top margin"
       inkscape:color="rgb(255,255,0)" />
    <sodipodi:guide
       position="64,2"
       orientation="0,1"
       id="guide6"
       inkscape:locked="false"
       inkscape:label="bottom margin"
       inkscape:color="rgb(255,255,0)" />
    <sodipodi:guide
       position="2,-2"
       orientation="-1,0"
       id="guide7"
       inkscape:locked="false"
       inkscape:label="right margin"
       inkscape:color="rgb(255,255,0)" />
    <sodipodi:guide
       position="62,64"
       orientation="-1,0"
       id="guide8"
       inkscape:locked="false"
       inkscape:label="left margin"
       inkscape:color="rgb(255,255,0)" />
    <sodipodi:guide
       position="64,64"
       orientation="0.70710678,-0.70710678"
       id="guide1"
       inkscape:locked="false"
       inkscape:label=""
       inkscape:color="rgb(255,255,0)" />
    <sodipodi:guide
       position="0,64"
       orientation="0.70710678,0.70710678"
       id="guide2"
       inkscape:label=""
       inkscape:locked="false"
       inkscape:color="rgb(255,255,0)" />
  </sodipodi:namedview>
  <defs
     id="defs1" />
  <metadata
     id="metadata1">
    <rdf:RDF>
      <cc:Work
         rdf:about="">
        <cc:license
           rdf:resource="http://creativecommons.org/licenses/by-nc-sa/4.0/" />
        <dc:creator>
          <cc:Agent>
            <dc:title>hasecilu</dc:title>
          </cc:Agent>
        </dc:creator>
        <dc:subject>
          <rdf:Bag>
            <rdf:li>FreeCAD</rdf:li>
            <rdf:li>command</rdf:li>
          </rdf:Bag>
        </dc:subject>
        <dc:description>Template file to create icons for FreeCAD commands.</dc:description>
        <dc:date>2025</dc:date>
        <dc:rights>
          <cc:Agent>
            <dc:title>FreeCAD LGPL2+</dc:title>
          </cc:Agent>
        </dc:rights>
        <dc:identifier>FreeCAD/src/</dc:identifier>
        <dc:publisher>
          <cc:Agent>
            <dc:title>FreeCAD</dc:title>
          </cc:Agent>
        </dc:publisher>
        <dc:relation>https://wiki.freecad.org/Artwork</dc:relation>
        <dc:title>Quetzal - Intersect 1</dc:title>
      </cc:Work>
      <cc:License
         rdf:about="http://creativecommons.org/licenses/by-nc-sa/4.0/">
        <cc:permits
           rdf:resource="http://creativecommons.org/ns#Reproduction" />
        <cc:permits
           rdf:resource="http://creativecommons.org/ns#Distribution" />
        <cc:requires
           rdf:resource="http://creativecommons.org/ns#Notice" />
        <cc:requires
           rdf:resource="http://creativecommons.org/ns#Attribution" />
        <cc:prohibits
           rdf:resource="http://creativecommons.org/ns#CommercialUse" />
        <cc:permits
           rdf:resource="http://creativecommons.org/ns#DerivativeWorks" />
        <cc:requires
           rdf:resource="http://creativecommons.org/ns#ShareAlike" />
      </cc:License>
    </rdf:RDF>
  </metadata>
  <path
     fill="none"
     stroke="rgb(52,101,164)"
     d="m 30.691644,26.255119 c -1.36063,1.511811 -1.398425,3.741732 -0.07559,4.951181 l 7.407873,6.576377 c 1.322835,1.171653 3.590551,0.907086 4.951181,-0.604725 1.360629,-1.511811 1.360629,-3.779527 0.03779,-4.988975 L 35.605029,25.6126 c -1.322835,-1.171654 -3.552755,-0.907087 -4.913385,0.642519 z"
     id="path20"
     style="stroke-width:1.30016;stroke-dasharray:none;display:inline;fill:#729fcf;stroke:#204a87"
     transform="matrix(1.4707572,0,0,1.4707572,-5.0795459,-11.741688)" />
  <path
     fill="#a5c3e2"
     stroke="none"
     d="m 30.691644,26.255119 c -1.36063,1.511811 -1.398425,3.741732 -0.07559,4.951181 1.36063,1.209448 3.590551,0.907086 4.951181,-0.604725 1.360629,-1.549606 1.398425,-3.779527 0.0378,-4.988975 C 34.2822,24.440946 32.05228,24.705513 30.69165,26.255119 Z m -2.494488,2.759055 z m 17.272438,5.366928 z"
     id="path23"
     style="stroke-width:1.30016;stroke-dasharray:none;stroke:#204a87"
     transform="matrix(1.4707572,0,0,1.4707572,-5.0795459,-11.741688)" />
  <path
     fill="none"
     stroke="rgb(52,101,164)"
     d="m 7.5609386,42.46929 c 1.8141729,1.247244 4.1574794,0.982677 5.1779524,-0.491338 l 5.631495,-8.352755 c 1.020472,-1.474016 0.377952,-3.779527 -1.43622,-5.026771 -1.814173,-1.209449 -4.195275,-0.982677 -5.215748,0.529134 L 6.086923,37.442519 C 5.0664507,38.95433 5.7467656,41.259841 7.5609386,42.46929 Z"
     id="path12"
     style="stroke-width:1.30016;stroke-dasharray:none;display:inline;fill:#729fcf;stroke:#204a87"
     transform="matrix(1.4707572,0,0,1.4707572,-5.0795459,-11.741688)" />
  <path
     fill="#a5c3e2"
     stroke="none"
     d="m 7.5609386,42.46929 c 1.8141729,1.247244 4.1574794,0.982677 5.1779524,-0.491338 1.020472,-1.511811 0.377952,-3.779527 -1.436221,-5.026771 C 9.4884973,35.741732 7.1073953,35.930708 6.086923,37.442519 5.0664507,38.95433 5.7467656,41.259841 7.5609386,42.46929 Z m 3.3259834,2.229921 z m 2.72126,-18.368501 z"
     id="path15"
     style="stroke-width:1.30016;stroke-dasharray:none;stroke:#204a87"
     transform="matrix(1.4707572,0,0,1.4707572,-5.0795459,-11.741688)" />
  <path
     id="path89"
     style="fill:#fce94f;stroke:#c4a000;stroke-width:1.30016;stroke-dasharray:none"
     sodipodi:type="inkscape:offset"
     inkscape:radius="0.65961725"
     inkscape:original="M 25.4375 18.884766 L 26.609375 21.191406 L 26.949219 20.775391 L 32.355469 25.234375 L 33.072266 24.402344 L 27.630859 19.943359 L 27.970703 19.527344 L 25.4375 18.884766 z "
     d="m 25.599609,18.246094 a 0.65968321,0.65968321 0 0 0 -0.75,0.9375 l 1.171875,2.30664 a 0.65968321,0.65968321 0 0 0 0.966797,0.173828 l 4.947266,4.080079 a 0.65968321,0.65968321 0 0 0 0.919922,-0.08008 l 0.716797,-0.832031 a 0.65968321,0.65968321 0 0 0 -0.08203,-0.939453 l -4.93164,-4.041016 -0.07617,0.09375 a 0.65968321,0.65968321 0 0 0 -0.34961,-1.05664 z"
     transform="matrix(2.3228306,0,0,2.3228306,-19.347758,-35.875185)" />
  <path
     style="fill:#babdb6;stroke-linecap:round;stroke-linejoin:round;stroke-dasharray:1,2;stroke:#2e3436;stroke-width:0.5;stroke-dashoffset:0"
     d="m 20,5 a 1,1 0 0 0 -0.707031,0.2929687 1,1 0 0 0 0,1.4140625 c 0.47367,0.4732193 0.949607,0.9449918 1.429687,1.4140626 a 1,1 0 0 0 1.414063,-0.015625 1,1 0 0 0 -0.01563,-1.4140626 C 21.647492,6.2286657 21.176617,5.7621079 20.707031,5.2929687 A 1,1 0 0 0 20,5 Z m 4.990234,4.4609375 a 1,1 0 0 0 -1.414062,0.033203 1,1 0 0 0 0.0332,1.4140624 l 0.734375,0.701172 a 1.0001,1.0001 0 0 0 0.002,0.002 l 0.714844,0.677735 A 1,1 0 0 0 26.474609,12.25 1,1 0 0 0 26.435547,10.835938 l -0.712891,-0.673829 z m 4.355469,4.1113285 a 1,1 0 0 0 -1.414062,0.04883 1,1 0 0 0 0.04883,1.412109 l 0.914062,0.853516 a 1.0001,1.0001 0 0 0 0.002,0.002 l 0.548828,0.509765 a 1,1 0 0 0 1.414063,-0.05273 1,1 0 0 0 -0.05273,-1.412109 l -0.546875,-0.509766 z m 4.394531,4.074218 a 1,1 0 0 0 -1.414062,0.05859 1,1 0 0 0 0.05859,1.414063 l 1.458984,1.341796 a 1.0001,1.0001 0 0 0 0.002,0 l 0.01367,0.01367 a 1,1 0 0 0 1.412109,-0.0625 A 1,1 0 0 0 35.210937,19 l -0.01367,-0.01172 z m 4.419922,4.050782 a 1,1 0 0 0 -1.412109,0.06445 1,1 0 0 0 0.06445,1.414062 l 0.4375,0.398438 a 1.0001,1.0001 0 0 0 0,0.002 l 1.041016,0.947265 a 1,1 0 0 0 1.412109,-0.06641 1,1 0 0 0 -0.06641,-1.412109 l -1.039063,-0.947266 z m 3.716797,3.77539 a 1,1 0 0 0 -0.691406,0.328125 1,1 0 0 0 0.07031,1.41211 l 1.087891,0.986328 0.394531,0.357422 a 1,1 0 0 0 1.414063,-0.07227 1,1 0 0 0 -0.07227,-1.412109 l -0.394531,-0.357422 -1.087891,-0.984375 a 1,1 0 0 0 -0.720703,-0.257813 z m 5.171875,4.275391 a 1,1 0 0 0 -1.412109,0.07422 1,1 0 0 0 0.07422,1.412109 l 1.486329,1.337891 a 1,1 0 0 0 1.412109,-0.07422 1,1 0 0 0 -0.07422,-1.41211 z m 4.464844,4.007812 a 1,1 0 0 0 -1.41211,0.07617 1,1 0 0 0 0.07617,1.41211 l 0.04102,0.03711 a 1.0001,1.0001 0 0 0 0.002,0.002 l 1.449219,1.294922 A 1,1 0 0 0 53.082031,36.5 1,1 0 0 0 53.001953,35.087891 l -1.449219,-1.294922 z m 3.75,3.742188 a 1,1 0 0 0 -0.689453,0.332031 1,1 0 0 0 0.08203,1.412109 l 0.689453,0.615235 0.804688,0.714844 a 1,1 0 0 0 1.412109,-0.08203 1,1 0 0 0 -0.08398,-1.412109 L 56.675781,38.363281 55.986328,37.75 a 1,1 0 0 0 -0.722656,-0.251953 z m 5.205078,4.234375 a 1,1 0 0 0 -1.412109,0.08594 1,1 0 0 0 0.08789,1.41211 l 0.966797,0.855468 A 1,1 0 0 0 61.523437,44 1,1 0 0 0 61.4375,42.587891 Z"
     id="path3" />
  <path
     style="fill:#06989a;stroke-linecap:round;stroke-linejoin:round;stroke-dasharray:2, 4"
     d="M 4,52 36,4"
     id="path9" />
  <path
     style="fill:#babdb6;stroke-linecap:round;stroke-linejoin:round;stroke-dasharray:1, 2;stroke:#2e3436;stroke-opacity:1;fill-opacity:1;stroke-width:0.5;stroke-dashoffset:0"
     d="m 35.617187,4.5722656 a 1,1 0 0 0 -1.386718,0.2773438 l -1.109375,1.6640625 a 1,1 0 0 0 0.277343,1.3867187 1,1 0 0 0 1.386719,-0.2773437 L 35.894531,5.9589844 A 1,1 0 0 0 35.617187,4.5722656 Z M 32.289062,9.5664063 A 1,1 0 0 0 30.902344,9.84375 l -1.109375,1.664063 a 1,1 0 0 0 0.277343,1.386718 1,1 0 0 0 1.386719,-0.277343 l 1.109375,-1.664063 A 1,1 0 0 0 32.289062,9.5664063 Z m -4.078125,4.8437497 a 1,1 0 0 0 -0.636718,0.425782 L 26.464844,16.5 a 1,1 0 0 0 0.277343,1.386719 1,1 0 0 0 1.386719,-0.277344 l 1.109375,-1.664062 a 1,1 0 0 0 -0.277344,-1.386719 1,1 0 0 0 -0.75,-0.148438 z m -3.328125,4.992188 a 1,1 0 0 0 -0.636718,0.425781 l -1.109375,1.664062 a 1,1 0 0 0 0.277343,1.386719 1,1 0 0 0 1.386719,-0.277344 L 25.910156,20.9375 a 1,1 0 0 0 -0.277344,-1.386719 1,1 0 0 0 -0.75,-0.148437 z m -3.328125,4.992187 a 1,1 0 0 0 -0.636718,0.425781 l -1.109375,1.664063 a 1,1 0 0 0 0.277343,1.386719 1,1 0 0 0 1.386719,-0.277344 l 1.109375,-1.664063 a 1,1 0 0 0 -0.277344,-1.386718 1,1 0 0 0 -0.75,-0.148438 z m -2.578125,5.140625 A 1,1 0 0 0 17.589844,29.8125 l -1.109375,1.664062 a 1,1 0 0 0 0.277343,1.386719 1,1 0 0 0 1.386719,-0.277344 l 1.109375,-1.664062 a 1,1 0 0 0 -0.277344,-1.386719 z m -3.328124,4.992188 a 1,1 0 0 0 -1.386719,0.277343 l -1.109375,1.664063 a 1,1 0 0 0 0.277344,1.386719 1,1 0 0 0 1.386718,-0.277344 l 1.109375,-1.664063 a 1,1 0 0 0 -0.277343,-1.386718 z m -4.078125,4.84375 a 1,1 0 0 0 -0.636719,0.425781 l -1.1093752,1.664062 a 1,1 0 0 0 0.2773442,1.386719 1,1 0 0 0 1.386718,-0.277344 l 1.109375,-1.664062 a 1,1 0 0 0 -0.277343,-1.386719 1,1 0 0 0 -0.75,-0.148437 z m -3.3281255,4.992187 a 1,1 0 0 0 -0.6367188,0.425781 l -1.109375,1.664063 A 1,1 0 0 0 6.7734375,47.839844 1,1 0 0 0 8.1601563,47.5625 l 1.109375,-1.664063 a 1,1 0 0 0 -0.2773438,-1.386718 1,1 0 0 0 -0.75,-0.148438 z m -3.328125,4.992188 A 1,1 0 0 0 4.2773437,49.78125 l -1.1093749,1.664062 a 1,1 0 0 0 0.2773437,1.386719 1,1 0 0 0 1.3867187,-0.277344 l 1.109375,-1.664062 a 1,1 0 0 0 -0.2773437,-1.386719 1,1 0 0 0 -0.75,-0.148437 z"
     id="path10" />
</svg>
